<?xml version="1.0" standalone="no"?><!DOCTYPE svg PUBLIC "-//W3C//DTD SVG 1.1//EN" "http://www.w3.org/Graphics/SVG/1.1/DTD/svg11.dtd"><svg t="1530803784664" class="icon" style="" viewBox="0 0 1024 1024" version="1.1" xmlns="http://www.w3.org/2000/svg" p-id="1707" xmlns:xlink="http://www.w3.org/1999/xlink" width="48" height="48"><defs><style type="text/css"></style></defs><path d="M883.96288 751.11424v-208.44032c0-204.62592-162.08896-375.37792-366.1824-378.50112-207.73376-3.17952-377.74336 165.30432-377.74336 372.8384v214.09792h-0.01536c-32.08704 0-58.10176-26.07616-58.10176-58.24512v-150.44096c0-237.73184 189.68064-434.78528 426.81856-436.54656C747.76064 104.10496 942.08 297.80992 942.08 537.01632v155.83744c0 32.1792-26.01984 58.26048-58.11712 58.26048z" fill="#76E276" p-id="1708"></path><path d="M883.95776 769.03936a17.92 17.92 0 0 1-17.92-17.92v-208.44032c0-195.88608-156.34944-357.64224-348.53376-360.58112-95.37024-1.48992-185.3184 34.69312-253.45536 101.79072-68.41344 67.3792-106.09152 157.27104-106.09152 253.1328v214.09792a17.92 17.92 0 0 1-17.92 17.92c-41.93792 0-76.04224-34.16576-76.04224-76.16512v-150.44608c0-248.77056 199.4496-452.64384 444.60544-454.46656 119.92064-0.96256 233.27744 45.25568 318.60736 129.95072 85.632 84.992 132.7872 198.31808 132.7872 319.104v155.83744c0.00512 42.0096-34.10432 76.1856-76.03712 76.1856zM512.02048 123.79136l-3.1488 0.01024C283.33056 125.47584 99.84 313.27232 99.84 542.42816v150.44608a40.37632 40.37632 0 0 0 22.28224 36.096v-191.9488c0-105.53344 41.47712-204.50304 116.78208-278.66624 75.02848-73.88672 174.00832-113.72032 279.15264-112.09216 211.64032 3.23584 383.82592 181.0688 383.82592 396.416v186.28608a40.40704 40.40704 0 0 0 22.28224-36.11136v-155.83744c0-111.16032-43.39712-215.45472-122.19392-293.66784-77.75232-77.16864-180.61824-119.55712-289.95072-119.55712z" fill="" p-id="1709"></path><path d="M288.59392 918.13376c-53.15584 0-96.24576-43.08992-96.24576-96.24576v-243.31776c0-53.15584 43.08992-96.24576 96.24576-96.24576 53.15584 0 96.24576 43.08992 96.24576 96.24576v243.31776c-0.00512 53.15584-43.09504 96.24576-96.24576 96.24576z" fill="#FFDD50" p-id="1710"></path><path d="M288.59392 936.05376c-62.9504 0-114.16064-51.21024-114.16064-114.16064v-243.31776c0-62.9504 51.21024-114.16576 114.16064-114.16576s114.16576 51.21536 114.16576 114.16576v243.31776c0 62.9504-51.21536 114.16064-114.16576 114.16064z m0-435.80416c-43.1872 0-78.32064 35.13344-78.32064 78.32576v243.31776c0 43.1872 35.13344 78.32064 78.32064 78.32064s78.32576-35.13344 78.32576-78.32064v-243.31776c0-43.19232-35.13856-78.32576-78.32576-78.32576z" fill="" p-id="1711"></path><path d="M735.39072 918.13376c-53.15584 0-96.24576-43.08992-96.24576-96.24576v-243.31776c0-53.15584 43.08992-96.24576 96.24576-96.24576 53.15584 0 96.24576 43.08992 96.24576 96.24576v243.31776c-0.00512 53.15584-43.09504 96.24576-96.24576 96.24576z" fill="#FFDD50" p-id="1712"></path><path d="M735.39072 936.05376c-62.9504 0-114.16576-51.21024-114.16576-114.16064v-243.31776c0-62.9504 51.21536-114.16576 114.16576-114.16576s114.16576 51.21536 114.16576 114.16576v243.31776c0 62.9504-51.21536 114.16064-114.16576 114.16064z m0-435.80416c-43.19232 0-78.32576 35.13344-78.32576 78.32576v243.31776c0 43.1872 35.13344 78.32064 78.32576 78.32064s78.32576-35.13344 78.32576-78.32064v-243.31776c0-43.19232-35.13856-78.32576-78.32576-78.32576z" fill="" p-id="1713"></path><path d="M192.34816 817.23904l-52.3264-26.33728v-181.34528l52.3264-26.33216z" fill="#FFDD50" p-id="1714"></path><path d="M192.34816 835.15904a17.87904 17.87904 0 0 1-8.05376-1.91488l-52.3264-26.33728a17.90976 17.90976 0 0 1-9.86624-16.00512v-181.34528c0-6.76864 3.8144-12.96384 9.86624-16.00512l52.3264-26.33728a17.92 17.92 0 0 1 25.97376 16v234.01472c0 6.2208-3.2256 11.99616-8.51968 15.25248a17.80736 17.80736 0 0 1-9.40032 2.67776z m-34.4064-55.30112l16.4864 8.29952V612.3008l-16.4864 8.29952v159.2576z" fill="" p-id="1715"></path><path d="M831.63136 817.23904l52.33152-26.33728v-181.34528l-52.33152-26.33216z" fill="#FFDD50" p-id="1716"></path><path d="M831.63648 835.15904a17.92 17.92 0 0 1-17.92-17.92v-234.01472a17.90464 17.90464 0 0 1 25.97376-16l52.3264 26.33728a17.90976 17.90976 0 0 1 9.86624 16.00512v181.34528a17.90976 17.90976 0 0 1-9.86624 16.00512l-52.3264 26.33728a18.00192 18.00192 0 0 1-8.05376 1.90464z m17.92-222.85824v175.85664l16.4864-8.29952v-159.25248l-16.4864-8.30464z" fill="" p-id="1717"></path></svg>