<?xml version="1.0" standalone="no"?><!DOCTYPE svg PUBLIC "-//W3C//DTD SVG 1.1//EN" "http://www.w3.org/Graphics/SVG/1.1/DTD/svg11.dtd"><svg t="1530803765856" class="icon" style="" viewBox="0 0 1024 1024" version="1.1" xmlns="http://www.w3.org/2000/svg" p-id="1536" xmlns:xlink="http://www.w3.org/1999/xlink" width="48" height="48"><defs><style type="text/css"></style></defs><path d="M307.4304 623.97952a317.9776 317.28128 90 1 0 634.56256 0 317.9776 317.28128 90 1 0-634.56256 0Z" fill="#FF5757" p-id="1537"></path><path d="M624.71168 960c-184.87808 0-335.28832-150.73792-335.28832-336.02048s150.41024-336.02048 335.28832-336.02048S960 438.70208 960 623.97952 809.58976 960 624.71168 960z m0-635.95008c-165.02272 0-299.27936 134.54848-299.27936 299.9296s134.25664 299.9296 299.27936 299.9296 299.27936-134.54848 299.27936-299.9296-134.25664-299.9296-299.27936-299.9296z" fill="" p-id="1538"></path><path d="M624.71168 828.53888c-112.54784 0-204.11392-91.76576-204.11392-204.55936s91.56608-204.55936 204.11392-204.55936 204.11392 91.76576 204.11392 204.55936-91.56608 204.55936-204.11392 204.55936z" fill="#FFFFFF" p-id="1539"></path><path d="M624.71168 846.58176c-122.47552 0-222.11584-99.86048-222.11584-222.60224s99.64032-222.60224 222.11584-222.60224 222.11584 99.86048 222.11584 222.60224-99.64032 222.60224-222.11584 222.60224z m0-409.1136c-102.62016 0-186.10688 83.67104-186.10688 186.51648s83.48672 186.51648 186.10688 186.51648 186.10688-83.67104 186.10688-186.51648-83.4816-186.51648-186.10688-186.51648z" fill="" p-id="1540"></path><path d="M624.71168 732.12928c-59.50464 0-107.91424-48.51712-107.91424-108.14976s48.4096-108.14976 107.91424-108.14976 107.91424 48.51712 107.91424 108.14976-48.4096 108.14976-107.91424 108.14976z" fill="#FF5757" p-id="1541"></path><path d="M624.71168 750.17728c-69.43232 0-125.92128-56.61184-125.92128-126.19776s56.48896-126.19776 125.92128-126.19776 125.92128 56.61184 125.92128 126.19776-56.48896 126.19776-125.92128 126.19776z m0-216.30464c-49.57696 0-89.91232 40.4224-89.91232 90.10688s40.33536 90.10688 89.91232 90.10688 89.91232-40.4224 89.91232-90.10688-40.33536-90.10688-89.91232-90.10688z" fill="" p-id="1542"></path><path d="M595.67616 623.97952a29.10208 29.03552 90 1 0 58.07104 0 29.10208 29.03552 90 1 0-58.07104 0Z" fill="" p-id="1543"></path><path d="M337.06496 337.664l-128.04608 26.9056-127.01184-127.29344 128.04608-26.9056z" fill="#FFDD50" p-id="1544"></path><path d="M209.01888 382.61248c-4.72576 0-9.3184-1.86368-12.73344-5.28384L69.2736 250.04032c-4.67456-4.6848-6.41024-11.56096-4.52608-17.90976s7.0912-11.15136 13.56288-12.51328l128.04608-26.9056a17.94048 17.94048 0 0 1 16.42496 4.89984L349.7984 324.89984a18.08896 18.08896 0 0 1 4.52608 17.90976 18.0224 18.0224 0 0 1-13.56288 12.51328l-128.04608 26.9056a18.1248 18.1248 0 0 1-3.69664 0.384zM118.26176 248.09472l96.59904 96.80896 85.94944-18.06336-96.59904-96.80896-85.94944 18.06336z" fill="" p-id="1545"></path><path d="M337.06496 337.664l26.84928-128.32768L236.9024 82.04288l-26.84928 128.32768z" fill="#FFDD50" p-id="1546"></path><path d="M337.07008 355.70688a18.00192 18.00192 0 0 1-12.73344-5.28384L197.31968 223.1296a18.08896 18.08896 0 0 1-4.8896-16.4608l26.84928-128.32768a17.98144 17.98144 0 1 1 30.35136-9.05728l127.01184 127.28832a18.08896 18.08896 0 0 1 4.8896 16.4608l-26.84928 128.32768a18.0224 18.0224 0 0 1-17.6128 14.34624zM229.67296 204.5184l96.59904 96.80896 18.0224-86.13888-96.59904-96.80896-18.0224 86.13888z" fill="" p-id="1547"></path><path d="M563.58912 526.90944l21.39136 59.2128-59.07968-21.44256-217.49248-217.96352 37.69344-37.77024z" fill="#FFDD50" p-id="1548"></path><path d="M584.97536 604.16512c-2.05312 0-4.12672-0.35328-6.12352-1.0752l-59.07968-21.43744a17.98656 17.98656 0 0 1-6.6048-4.20864L295.67488 359.4752a18.0736 18.0736 0 0 1 0-25.51808l37.69344-37.77536a17.98656 17.98656 0 0 1 25.46688 0l217.48736 217.96864c1.8688 1.8688 3.3024 4.13184 4.1984 6.62016l21.39136 59.2128a18.06848 18.06848 0 0 1-4.1984 18.89792 18.00192 18.00192 0 0 1-12.73856 5.28384z m-49.1776-55.07584l19.16928 6.95296-6.9376-19.21024-201.92768-202.37312-12.23168 12.25728 201.92768 202.37312z" fill="" p-id="1549"></path><path d="M622.76096 642.0224c-4.608 0-9.21088-1.76128-12.72832-5.28384l-37.77536-37.85728a18.05824 18.05824 0 0 1 0-25.51296 17.9712 17.9712 0 0 1 25.46176 0l37.77536 37.85728a18.05824 18.05824 0 0 1 0 25.51296 17.95584 17.95584 0 0 1-12.73344 5.28384z" fill="" p-id="1550"></path></svg>