<?xml version="1.0" standalone="no"?><!DOCTYPE svg PUBLIC "-//W3C//DTD SVG 1.1//EN" "http://www.w3.org/Graphics/SVG/1.1/DTD/svg11.dtd"><svg t="1530803754761" class="icon" style="" viewBox="0 0 1024 1024" version="1.1" xmlns="http://www.w3.org/2000/svg" p-id="1335" xmlns:xlink="http://www.w3.org/1999/xlink" width="48" height="48"><defs><style type="text/css"></style></defs><path d="M733.0816 81.92512V290.7136H290.9184V81.92512h98.37568v90.59328h75.33056V81.92512h94.74048v90.59328h75.33056V81.92512h98.38592z" fill="#FFDD50" p-id="1336"></path><path d="M733.0816 308.63872H290.9184a17.92 17.92 0 0 1-17.92512-17.92512V81.92512A17.92 17.92 0 0 1 290.9184 64h98.37568a17.92 17.92 0 0 1 17.92512 17.92512v72.67328h39.48544V81.92512a17.92 17.92 0 0 1 17.92512-17.92512h94.74048a17.92512 17.92512 0 0 1 17.92512 17.92512v72.67328h39.48544V81.92512a17.92512 17.92512 0 0 1 17.92512-17.92512h98.37568a17.92512 17.92512 0 0 1 17.92512 17.92512V290.7136a17.93024 17.93024 0 0 1-17.92512 17.92512z m-424.23808-35.85024h406.31296V99.85024h-62.53056v72.67328a17.92512 17.92512 0 0 1-17.92512 17.92512h-75.33056a17.92512 17.92512 0 0 1-17.92512-17.92512V99.85024H482.54976v72.67328a17.92 17.92 0 0 1-17.92512 17.92512H389.29408a17.92 17.92 0 0 1-17.92512-17.92512V99.85024H308.84352v172.93824z" fill="" p-id="1337"></path><path d="M724.57728 768.11264H299.4176l13.57312-79.73888h61.35296C503.3472 405.12 397.2864 290.7136 397.2864 290.7136h229.4272s-106.0608 114.4064 22.94272 397.66016h61.35296l13.568 79.73888z" fill="#FFDD50" p-id="1338"></path><path d="M724.57728 786.03776H299.4176a17.92 17.92 0 0 1-17.66912-20.92544l13.57312-79.73888a17.92 17.92 0 0 1 17.66912-14.91968h49.74592c115.4304-261.56544 22.36928-366.50496 21.4016-367.54944a17.93024 17.93024 0 0 1 13.14304-30.11072h229.43232a17.92 17.92 0 0 1 13.14304 30.11072c-0.85504 0.96256-92.96384 108.2624 21.40672 367.54944h49.74592a17.92512 17.92512 0 0 1 17.66912 14.91968l13.568 79.73888a17.90464 17.90464 0 0 1-17.66912 20.92544z m-403.92704-35.85024h382.6944l-7.47008-43.88864h-46.21824a17.92 17.92 0 0 1-16.31232-10.496c-96.95744-212.8896-65.02912-335.03232-39.1424-387.15904H429.80352c25.8816 52.12672 57.80992 174.26944-39.15264 387.15904a17.92 17.92 0 0 1-16.31232 10.496h-46.21824l-7.47008 43.88864z" fill="" p-id="1339"></path><path d="M770.30912 834.0736V942.08H253.68576v-108.0064c0-40.76544 44.86144-60.84096 44.86144-60.84096l0.8704-5.12h425.15968l0.8704 5.12s44.86144 20.07552 44.86144 60.84096z" fill="#5CB9FF" p-id="1340"></path><path d="M770.31424 960H253.68576a17.92512 17.92512 0 0 1-17.92512-17.92512v-108.0064c0-39.84896 31.50336-63.48288 47.05792-72.71936a17.92512 17.92512 0 0 1 16.59904-11.1616h425.15968c7.41376 0 13.9008 4.5312 16.60416 11.1616 15.55456 9.2416 47.05792 32.8704 47.05792 72.71936v108.0064a17.93024 17.93024 0 0 1-17.92512 17.92512z m-498.70336-35.85024h480.77824v-90.08128c0-28.42624-33.99168-44.35456-34.33984-44.50816a18.06336 18.06336 0 0 1-5.11488-3.52768H311.0912a17.89952 17.89952 0 0 1-5.2224 3.55328c-0.26624 0.12288-34.25792 16.0512-34.25792 44.48256v90.08128z" fill="" p-id="1341"></path></svg>