<?xml version="1.0" standalone="no"?><!DOCTYPE svg PUBLIC "-//W3C//DTD SVG 1.1//EN" "http://www.w3.org/Graphics/SVG/1.1/DTD/svg11.dtd"><svg t="1529906931261" class="icon" style="" viewBox="0 0 1024 1024" version="1.1" xmlns="http://www.w3.org/2000/svg" p-id="1253" xmlns:xlink="http://www.w3.org/1999/xlink" width="200" height="200"><defs><style type="text/css"></style></defs><path d="M562.68288 784.31232c21.14048-27.44832 25.23136-57.30304 6.6048-75.96032-26.3168-26.35776-69.35552-8.38144-90.83392-45.58336s16.06656-80.24064 59.71456-105.4464 99.69664-36.19328 121.17504 1.00864-15.61088 65.48992-5.9392 101.45792c6.84032 25.45664 34.7392 36.84352 69.08416 32.26112l146.2784-84.4544-84.4544-146.2784c-4.58752-34.34496 6.80448-62.24384 32.256-69.08416 35.968-9.66656 64.256 27.4176 101.45792 5.9392s26.20928-77.52192 1.00864-121.17504c-25.20064-43.65312-68.24448-81.19296-105.4464-59.71456s-19.2256 64.51712-45.58336 90.83392c-18.65216 18.62144-48.50688 14.53568-75.96032-6.6048l-84.4544-146.2784L461.312 239.68768c-21.14048 27.44832-25.23136 57.30304-6.6048 75.9552 26.3168 26.35776 69.35552 8.38144 90.83392 45.58336s-16.06656 80.24064-59.71456 105.4464c-43.65312 25.20064-99.69664 36.19328-121.17504-1.00864s15.61088-65.48992 5.9392-101.45792c-6.84032-25.45664-34.7392-36.84352-69.08416-32.26112l-146.2784 84.4544 84.4544 146.2784c4.58752 34.34496-6.80448 62.24384-32.256 69.08416-35.968 9.66656-64.256-27.4176-101.45792-5.9392s-26.20928 77.52192-1.00864 121.17504c25.20064 43.65312 68.24448 81.19296 105.4464 59.71456s19.2256-64.51712 45.58336-90.83392c18.65216-18.62144 48.50688-14.53568 75.96032 6.6048l84.4544 146.2784 146.2784-84.44928z" fill="#FFDD50" p-id="1254"></path><path d="M416.40448 886.68672a17.8944 17.8944 0 0 1-15.52384-8.96l-82.60096-143.06816c-16.17408-11.57632-36.92544-18.7648-49.62816-6.09792-7.8592 7.84384-10.09664 19.2512-12.69248 32.45568-3.96288 20.1472-8.88832 45.22496-36.58752 61.21984-34.2272 19.75808-87.66464 6.92224-129.93024-66.2784-14.96576-25.91744-23.936-53.21216-25.27232-76.85632-1.75104-31.1296 9.9072-55.56736 32.83968-68.80256 27.70432-15.98976 51.88608-7.7312 71.31136-1.08032 12.72832 4.352 23.71584 8.10496 34.45248 5.23776 17.32608-4.6592 21.46816-26.22976 19.5328-46.0288L139.70944 425.36448a17.93024 17.93024 0 0 1 6.55872-24.48384l146.2784-84.4544a17.95072 17.95072 0 0 1 6.58944-2.24256c44.90752-5.99552 79.74912 11.81184 88.76032 45.37344 5.71904 21.27872-0.47104 39.38304-5.93408 55.35744-6.15936 18.00704-9.27744 28.8256-1.792 41.78944 8.74496 15.1552 41.71776 26.17856 96.69632-5.5552 54.97344-31.73888 61.90592-65.80736 53.15584-80.96256-7.48544-12.96384-18.41664-15.67232-37.08928-19.34336-16.5632-3.25632-35.34336-6.94784-50.91328-22.53824-24.5504-24.59136-22.5536-63.6672 5.08928-99.5584a17.98656 17.98656 0 0 1 5.23776-4.58752l146.2784-84.4544a17.90464 17.90464 0 0 1 24.48384 6.55872l82.59584 143.06816c16.18432 11.57632 36.93568 18.75968 49.63328 6.0928 7.85408-7.84896 10.10176-19.2512 12.6976-32.4608 3.96288-20.1472 8.88832-45.21984 36.58752-61.21472 22.92736-13.24544 49.91488-11.12576 76.0064 5.9648 19.80928 12.97408 38.95808 34.39616 53.92384 60.3136 14.96064 25.92256 23.936 53.21216 25.27232 76.85632 1.75616 31.1296-9.9072 55.56224-32.83968 68.80256-27.70944 15.99488-51.88608 7.72096-71.30624 1.08032-12.73344-4.352-23.71584-8.11008-34.4576-5.23776-17.32608 4.6592-21.47328 26.22464-19.53792 46.02368l82.60608 143.07328a17.94048 17.94048 0 0 1-6.55872 24.48384l-146.28352 84.4544a17.99168 17.99168 0 0 1-6.58944 2.24768c-44.91776 6.00064-79.73888-11.8272-88.76032-45.36832-5.71904-21.28896 0.47616-39.38816 5.93408-55.36768 6.15936-18.00192 9.28256-28.8256 1.79712-41.78432-8.7552-15.16544-41.73312-26.1888-96.69632 5.55008-54.96832 31.73888-61.90592 65.80736-53.15584 80.96256 7.48544 12.96896 18.41664 15.67232 37.08928 19.34336 16.5632 3.25632 35.33824 6.94784 50.90816 22.53824 24.5504 24.58112 22.55872 63.66208-5.08928 99.5584a17.85856 17.85856 0 0 1-5.23776 4.58752l-146.2784 84.4544a17.95072 17.95072 0 0 1-8.96512 2.40128zM285.3632 686.08c18.29376 0 38.36416 7.4496 57.52832 22.21056 1.85344 1.42336 3.41504 3.20512 4.58752 5.23776l75.48928 130.75456 127.54432-73.64096c11.58144-16.18432 18.77504-36.93056 6.09792-49.62816-7.84384-7.8592-19.24608-10.10176-32.45568-12.6976-20.15232-3.95776-45.22496-8.88832-61.21984-36.58752-19.75296-34.21696-6.92224-87.66464 66.27328-129.93024 73.20576-42.2656 125.9008-26.6496 145.664 7.57248 15.98976 27.70432 7.72096 51.88096 1.0752 71.30624-4.35712 12.73856-8.1152 23.7312-5.23776 34.4576 4.6592 17.32096 26.22464 21.44768 46.02368 19.53792l127.54944-73.64608-75.4944-130.75968a17.95072 17.95072 0 0 1-2.24256-6.58944c-5.99552-44.9024 11.81184-79.744 45.36832-88.76544 21.29408-5.71904 39.38304 0.47104 55.36256 5.93408 18.00192 6.15424 28.81536 9.27744 41.78432 1.792 4.0704-2.35008 16.45056-9.4976 14.97088-35.74272-1.00352-17.88928-8.48896-40.09984-20.52608-60.9536-12.032-20.84864-27.53536-38.43072-42.5216-48.25088-21.98016-14.39744-34.37056-7.24992-38.44096-4.90496-12.96384 7.48544-15.67232 18.41664-19.34336 37.08928-3.25632 16.5632-6.94784 35.33824-22.54336 50.91328-24.58112 24.5504-63.6672 22.54848-99.5584-5.08928a17.98656 17.98656 0 0 1-4.58752-5.23776L601.0368 179.71712 473.48736 253.35808c-11.57632 16.1792-18.76992 36.92544-6.0928 49.62816 7.84384 7.85408 19.2512 10.09664 32.45568 12.69248 20.1472 3.96288 45.22496 8.88832 61.21984 36.59264 19.75296 34.21696 6.92736 87.66464-66.2784 129.93024-73.20576 42.26048-125.90592 26.64448-145.65888-7.56736-15.99488-27.70432-7.72096-51.88608-1.08032-71.31136 4.35712-12.73344 8.12032-23.7312 5.23776-34.45248-4.6592-17.3312-26.22464-21.48864-46.02368-19.53792L179.71712 422.9632l75.4944 130.75456c1.17248 2.03264 1.93024 4.27008 2.24256 6.58944 5.9904 44.9024-11.81696 79.744-45.36832 88.76544-21.28384 5.72416-39.38304-0.47104-55.36256-5.93408-18.00704-6.16448-28.8256-9.28256-41.78944-1.792-4.0704 2.35008-16.45056 9.4976-14.97088 35.74272 1.00864 17.88928 8.48896 40.09984 20.52608 60.94848 31.73376 54.96832 65.80736 61.90592 80.96256 53.15584 12.96384-7.48544 15.67232-18.41664 19.34336-37.08928 3.25632-16.5632 6.94784-35.33824 22.53824-50.90816 11.45856-11.4432 26.0608-17.11616 42.03008-17.11616z m277.31968 98.23232h0.0512-0.0512z" fill="" p-id="1255"></path></svg>