<?xml version="1.0" standalone="no"?><!DOCTYPE svg PUBLIC "-//W3C//DTD SVG 1.1//EN" "http://www.w3.org/Graphics/SVG/1.1/DTD/svg11.dtd"><svg t="1530805466758" class="icon" style="" viewBox="0 0 1024 1024" version="1.1" xmlns="http://www.w3.org/2000/svg" p-id="2941" xmlns:xlink="http://www.w3.org/1999/xlink" width="48" height="48"><defs><style type="text/css"></style></defs><path d="M786.10448 105.006818c-31.843823-18.981895-77.991567 1.633991-77.991568 1.63399s-2.403987-49.551725-35.679802-69.387615c-32.36782-19.291893-74.707586-8.349954-95.703469 22.939873-11.857934 17.677902-14.253921 35.083805-13.463925 52.613708 1.583991 35.023806 37.957789 138.74923 53.199705 147.83518 15.557914 9.273949 123.319316-8.241954 155.121139-23.667868 15.845912-7.689957 29.965834-18.0319 39.871779-36.873796 17.535903-33.351815 7.013961-75.80158-25.353859-95.093472" fill="#FF5E8A" p-id="2942"></path><path d="M627.217361 601.842062c-36.657797 0-70.577609-11.635935-98.315455-31.397826-26.397854 59.46967-85.925523 100.97144-155.185139 100.97144a170.579054 170.579054 0 0 1-30.047833-2.705985l156.79513 327.738182 195.816914-409.30173a169.035062 169.035062 0 0 1-69.063617 14.695919z" fill="#FECC85" p-id="2943"></path><path d="M373.734767 501.672617m-169.757058 0a169.757058 169.757058 0 1 0 339.514116 0 169.757058 169.757058 0 1 0-339.514116 0Z" fill="#CFEB70" p-id="2944"></path><path d="M627.217361 262.349945c-7.25396 0-14.38592 0.509997-21.399881 1.391992a170.853052 170.853052 0 0 1 2.035988 26.293854c0 86.49352-64.707641 157.827125-148.343177 168.353066 12.63993 81.259549 82.90554 143.451204 167.70907 143.451205 93.74748 0 169.745058-75.997578 169.745058-169.745059s-75.999578-169.745058-169.747058-169.745058z" fill="#CFEB70" p-id="2945"></path><path d="M438.11841 290.039791m-169.757059 0a169.757058 169.757058 0 1 0 339.514117 0 169.757058 169.757058 0 1 0-339.514117 0Z" fill="#FF5E8A" p-id="2946"></path><path d="M835.842204 212.922219c24.765863-47.109739 9.115949-104.905418-35.635803-131.58127-23.45787-13.983922-50.357721-13.437925-70.905606-9.625947-6.225965-19.83189-18.517897-43.675758-42.763763-58.129677-44.745752-26.669852-103.027429-12.939928-132.687264 31.261826-17.829901 26.579853-18.871895 52.22571-18.1059 69.203616 0.068 1.539991 0.195999 3.167982 0.357998 4.855973-28.89384-16.611908-62.337654-26.165855-97.991456-26.165854-108.785397 0-197.290906 88.507509-197.290906 197.292905a196.694909 196.694909 0 0 0 8.823951 58.393676v-0.002c-44.623752 36.201799-73.215594 91.435493-73.215594 153.24315 0 91.851491 63.09765 169.243061 148.225178 191.11094L475.620202 1008.335807a27.547847 27.547847 0 0 0 49.703724 0l191.676937-400.647778c63.759646-32.731818 107.515404-99.12745 107.515404-175.593026 0-64.357643-30.981828-121.605325-78.801563-157.639125 14.857918-3.787979 28.427842-8.099955 37.905789-12.69393 15.293915-7.425959 37.359793-20.569886 52.221711-48.839729z m-397.733794-65.079639c78.407565 0 142.195211 63.787646 142.195211 142.195211 0 78.405565-63.787646 142.193211-142.195211 142.193211-78.405565 0-142.193211-63.787646-142.193211-142.193211 0.002-78.407565 63.789646-142.195211 142.193211-142.195211zM231.525556 501.670617c0-39.791779 16.449909-75.79958 42.883762-101.633436 35.469803 52.615708 95.60947 87.291516 163.699092 87.291516a196.238911 196.238911 0 0 0 74.801585-14.767918 142.215211 142.215211 0 0 1 3.007983 29.111838c0 78.405565-63.787646 142.193211-142.195211 142.193212s-142.197211-63.791646-142.197211-142.195212z m268.944508 430.94361L388.398686 698.357526c63.249649-4.677974 118.271344-39.277782 150.953162-89.691502l-0.002 0.006a195.922913 195.922913 0 0 0 106.623409 19.80389l-145.503193 304.138313z m268.942508-500.519224c0 78.407565-63.787646 142.195211-142.193211 142.195211-23.267871 0-45.241749-5.621969-64.643642-15.575913a196.638909 196.638909 0 0 0 8.441954-57.045684 196.694909 196.694909 0 0 0-8.823951-58.393676l-0.11 0.088c44.499753-36.0518 73.069595-91.017495 73.305594-152.561154a197.790903 197.790903 0 0 0 6.487964-0.123999c71.539603 7.361959 127.535293 67.959623 127.535292 141.417215z m-216.810797 152.671153c0.107999-0.227999 0.205999-0.461997 0.313998-0.693996-0.107999 0.231999-0.207999 0.465997-0.313998 0.693996z m-13.935923-125.081306l0.044-0.024a0.327998 0.327998 0 0 1-0.044 0.024z m220.900775-247.498627c-21.145883 10.255943-83.349538 21.437881-115.799358 23.36787a198.546899 198.546899 0 0 0-12.879928-0.655996c-13.173927-22.763874-38.937784-97.623458-40.097778-123.335316-0.687996-15.221916 1.86799-25.655858 8.815951-36.0198 13.115927-19.539892 39.453781-26.107855 58.721674-14.627919 16.561908 9.869945 21.69588 37.419792 22.267877 47.059739a27.545847 27.545847 0 0 0 38.753785 23.819868c6.985961-3.129983 36.403798-12.815929 52.649708-3.125983 19.265893 11.485936 26.027856 37.77779 15.075916 58.611675-5.795968 11.019939-13.765924 18.237899-27.507847 24.905862z" fill="" p-id="2947"></path><path d="M572.323665 649.969795c-13.715924-6.599963-30.171833-0.837995-36.775796 12.873928l-29.359837 60.987662c-6.599963 13.711924-0.833995 30.171833 12.873929 36.775796a27.455848 27.455848 0 0 0 11.931934 2.729985c10.253943 0 20.097889-5.749968 24.843862-15.603914l29.359837-60.987661c6.597963-13.711924 0.831995-30.171833-12.873929-36.775796zM513.415992 786.953035c-1.515992-0.991994-3.113983-1.84599-4.765973-2.533986s-3.385981-1.239993-5.151972-1.569991a27.267849 27.267849 0 0 0-10.76994 0c-1.76599 0.329998-3.501981 0.881995-5.151972 1.569991-1.655991 0.687996-3.253982 1.541991-4.741973 2.533986a26.339854 26.339854 0 0 0-4.187977 3.415981 27.657847 27.657847 0 0 0-8.099955 19.473892c0 1.78999 0.191999 3.61198 0.549997 5.37197 0.357998 1.76599 0.881995 3.501981 1.569991 5.179971 0.687996 1.655991 1.541991 3.253982 2.533986 4.741974 1.019994 1.515992 2.147988 2.919984 3.443981 4.187977a28.139844 28.139844 0 0 0 4.187977 3.443981c1.487992 0.991994 3.085983 1.84599 4.741973 2.533986 1.651991 0.687996 3.385981 1.211993 5.151972 1.545991 1.78799 0.357998 3.58198 0.547997 5.39997 0.547997 1.78799 0 3.60798-0.189999 5.36997-0.547997a25.575858 25.575858 0 0 0 5.151972-1.545991 28.965839 28.965839 0 0 0 4.765973-2.533986c1.487992-1.019994 2.919984-2.175988 4.187977-3.443981a26.339854 26.339854 0 0 0 3.415981-4.187977c0.991994-1.487992 1.84599-3.085983 2.533986-4.741974 0.687996-1.677991 1.211993-3.413981 1.569991-5.179971a27.159849 27.159849 0 0 0 0.551997-5.37197c0-7.24596-2.947984-14.35392-8.073955-19.473892a27.523847 27.523847 0 0 0-4.183977-3.415981z" fill="" p-id="2948"></path></svg>