<?xml version="1.0" standalone="no"?><!DOCTYPE svg PUBLIC "-//W3C//DTD SVG 1.1//EN" "http://www.w3.org/Graphics/SVG/1.1/DTD/svg11.dtd"><svg t="1526549746066" class="icon" style="" viewBox="0 0 1024 1024" version="1.1" xmlns="http://www.w3.org/2000/svg" p-id="14010" xmlns:xlink="http://www.w3.org/1999/xlink" width="48" height="48"><defs><style type="text/css"></style></defs><path d="M512 32C248 32 32 248 32 512s216 480 480 480 480-216 480-480S776 32 512 32z" fill="#FFFFFF" p-id="14011"></path><path d="M512 0C228.8 0 0 228.8 0 512s228.8 512 512 512 512-228.8 512-512S795.2 0 512 0z m0 992C248 992 32 776 32 512S248 32 512 32s480 216 480 480-216 480-480 480z" fill="" p-id="14012"></path><path d="M512 512m-392 0a392 392 0 1 0 784 0 392 392 0 1 0-784 0Z" fill="#FAD97F" p-id="14013"></path><path d="M283.2 340.8h134.4c27.2 0 46.4 1.6 59.2 3.2 12.8 1.6 24 6.4 35.2 14.4 9.6 6.4 19.2 16 25.6 28.8s9.6 24 9.6 38.4c0 16-4.8 30.4-12.8 43.2-8 12.8-19.2 22.4-33.6 28.8 20.8 6.4 36.8 16 46.4 30.4 11.2 14.4 16 30.4 16 51.2 0 16-3.2 30.4-11.2 44.8-6.4 14.4-16 25.6-28.8 35.2s-27.2 14.4-44.8 16c-11.2 1.6-38.4 1.6-81.6 1.6h-113.6v-336z m67.2 56v76.8h44.8c25.6 0 43.2 0 49.6-1.6 11.2-1.6 20.8-4.8 27.2-12.8 6.4-6.4 9.6-16 9.6-25.6s-3.2-19.2-8-25.6c-6.4-6.4-14.4-9.6-25.6-11.2-6.4 0-25.6-1.6-57.6-1.6l-40 1.6z m0 132.8v89.6h62.4c24 0 40 0 46.4-1.6 9.6-1.6 17.6-6.4 24-12.8 6.4-6.4 9.6-16 9.6-28.8 0-9.6-3.2-19.2-8-25.6-4.8-6.4-11.2-12.8-20.8-16s-28.8-4.8-59.2-4.8h-54.4zM660.8 516.8v-67.2H592v-46.4h68.8V336h44.8v67.2h68.8v46.4h-68.8v67.2h-44.8z" fill="" p-id="14014"></path></svg>