<?xml version="1.0" standalone="no"?><!DOCTYPE svg PUBLIC "-//W3C//DTD SVG 1.1//EN" "http://www.w3.org/Graphics/SVG/1.1/DTD/svg11.dtd"><svg t="1532314069389" class="icon" style="" viewBox="0 0 1024 1024" version="1.1" xmlns="http://www.w3.org/2000/svg" p-id="7523" xmlns:xlink="http://www.w3.org/1999/xlink" width="48" height="48"><defs><style type="text/css"></style></defs><path d="M714.1 283.1h-1.4v28.7h1.4c24.2 0 43.9 19.7 43.9 43.9V417h-45.8v28.7H758V563h-45.8v28.7H758v117.4h-45.8v28.7H758v183.3h28.7V355.7c0-40.1-32.6-72.6-72.6-72.6z" fill="#333E48" p-id="7524"></path><path d="M486.1 151.6V98c0-10.5-8.6-19.2-19.2-19.2H341.7c-10.5 0-19.2 8.6-19.2 19.2v53.6h163.6z" fill="#A4A9AD" p-id="7525"></path><path d="M322.5 120.3h163.6v31.3H322.5z" fill="" p-id="7526"></path><path d="M281.1 198.8h433V921h-433z" fill="#FF5959" p-id="7527"></path><path d="M281.1 198.8h433v49.3h-433z" fill="" p-id="7528"></path><path d="M743.7 152.4c0-7.4-6-13.4-13.4-13.4H264.9c-7.4 0-13.4 6-13.4 13.4v51.7c0 7.4 6 13.4 13.4 13.4h465.4c7.4 0 13.4-6 13.4-13.4v-51.7z" fill="#333E48" p-id="7529"></path><path d="M631.3 490.8h82.8v39.8h-82.8zM281.1 360.1h82.8v39.8h-82.8zM584.6 723.4h82.8v39.8h-82.8zM322.5 612.6h82.8v39.8h-82.8zM281.1 823.4h82.8v39.8h-82.8zM497.6 405.8h82.8v39.8h-82.8zM597.2 259.5H680v39.8h-82.8z" fill="" p-id="7530"></path><path d="M455.6 842.8c0 5.3-4.3 9.6-9.6 9.6h-96.1c-5.3 0-9.6-4.3-9.6-9.6V823c0-5.3 4.3-9.6 9.6-9.6h96.2c5.3 0 9.6 4.3 9.6 9.6l-0.1 19.8z" fill="" p-id="7531"></path><path d="M438.2 801.9v-94.3c0-5.3-4.3-9.6-9.6-9.6h-61.3c-5.3 0-9.6 4.3-9.6 9.6v94.3h80.5z" fill="#FFFFFF" p-id="7532"></path><path d="M428.6 698h-61.3c-5.3 0-9.6 4.3-9.6 9.6v15.2c0-5.3 4.3-9.6 9.6-9.6h61.3c5.3 0 9.6 4.3 9.6 9.6v-15.2c0-5.3-4.3-9.6-9.6-9.6z" fill="" p-id="7533"></path><path d="M455.6 831.3c0 5.3-4.3 9.6-9.6 9.6h-96.1c-5.3 0-9.6-4.3-9.6-9.6v-19.8c0-5.3 4.3-9.6 9.6-9.6h96.2c5.3 0 9.6 4.3 9.6 9.6l-0.1 19.8z" fill="#333E48" p-id="7534"></path><path d="M539.6 842.8c0 5.3 4.3 9.6 9.6 9.6h96.2c5.3 0 9.6-4.3 9.6-9.6V823c0-5.3-4.3-9.6-9.6-9.6h-96.2c-5.3 0-9.6 4.3-9.6 9.6v19.8z" fill="" p-id="7535"></path><path d="M557 801.9v-94.3c0-5.3 4.3-9.6 9.6-9.6h61.3c5.3 0 9.6 4.3 9.6 9.6v94.3H557z" fill="#FFFFFF" p-id="7536"></path><path d="M566.6 698h61.3c5.3 0 9.6 4.3 9.6 9.6v15.2c0-5.3-4.3-9.6-9.6-9.6h-61.3c-5.3 0-9.6 4.3-9.6 9.6v-15.2c0-5.3 4.3-9.6 9.6-9.6z" fill="" p-id="7537"></path><path d="M539.6 831.3c0 5.3 4.3 9.6 9.6 9.6h96.2c5.3 0 9.6-4.3 9.6-9.6v-19.8c0-5.3-4.3-9.6-9.6-9.6h-96.2c-5.3 0-9.6 4.3-9.6 9.6v19.8z" fill="#333E48" p-id="7538"></path><path d="M455.6 631.1c0 5.3-4.3 9.6-9.6 9.6h-96.1c-5.3 0-9.6-4.3-9.6-9.6v-19.8c0-5.3 4.3-9.6 9.6-9.6h96.2c5.3 0 9.6 4.3 9.6 9.6l-0.1 19.8z" fill="" p-id="7539"></path><path d="M438.2 590.2v-94.3c0-5.3-4.3-9.6-9.6-9.6h-61.3c-5.3 0-9.6 4.3-9.6 9.6v94.3h80.5z" fill="#FFFFFF" p-id="7540"></path><path d="M428.6 486.3h-61.3c-5.3 0-9.6 4.3-9.6 9.6v15.2c0-5.3 4.3-9.6 9.6-9.6h61.3c5.3 0 9.6 4.3 9.6 9.6v-15.2c0-5.3-4.3-9.6-9.6-9.6z" fill="" p-id="7541"></path><path d="M455.6 619.6c0 5.3-4.3 9.6-9.6 9.6h-96.1c-5.3 0-9.6-4.3-9.6-9.6v-19.8c0-5.3 4.3-9.6 9.6-9.6h96.2c5.3 0 9.6 4.3 9.6 9.6l-0.1 19.8z" fill="#333E48" p-id="7542"></path><path d="M539.6 631.1c0 5.3 4.3 9.6 9.6 9.6h96.2c5.3 0 9.6-4.3 9.6-9.6v-19.8c0-5.3-4.3-9.6-9.6-9.6h-96.2c-5.3 0-9.6 4.3-9.6 9.6v19.8z" fill="" p-id="7543"></path><path d="M557 590.2v-94.3c0-5.3 4.3-9.6 9.6-9.6h61.3c5.3 0 9.6 4.3 9.6 9.6v94.3H557z" fill="#FFFFFF" p-id="7544"></path><path d="M566.6 486.3h61.3c5.3 0 9.6 4.3 9.6 9.6v15.2c0-5.3-4.3-9.6-9.6-9.6h-61.3c-5.3 0-9.6 4.3-9.6 9.6v-15.2c0-5.3 4.3-9.6 9.6-9.6z" fill="" p-id="7545"></path><path d="M539.6 619.6c0 5.3 4.3 9.6 9.6 9.6h96.2c5.3 0 9.6-4.3 9.6-9.6v-19.8c0-5.3-4.3-9.6-9.6-9.6h-96.2c-5.3 0-9.6 4.3-9.6 9.6v19.8z" fill="#333E48" p-id="7546"></path><path d="M455.6 419.4c0 5.3-4.3 9.6-9.6 9.6h-96.1c-5.3 0-9.6-4.3-9.6-9.6v-19.8c0-5.3 4.3-9.6 9.6-9.6h96.2c5.3 0 9.6 4.3 9.6 9.6l-0.1 19.8z" fill="" p-id="7547"></path><path d="M438.2 378.5v-94.3c0-5.3-4.3-9.6-9.6-9.6h-61.3c-5.3 0-9.6 4.3-9.6 9.6v94.3h80.5z" fill="#FFFFFF" p-id="7548"></path><path d="M428.6 274.6h-61.3c-5.3 0-9.6 4.3-9.6 9.6v15.2c0-5.3 4.3-9.6 9.6-9.6h61.3c5.3 0 9.6 4.3 9.6 9.6v-15.2c0-5.3-4.3-9.6-9.6-9.6z" fill="" p-id="7549"></path><path d="M455.6 407.9c0 5.3-4.3 9.6-9.6 9.6h-96.1c-5.3 0-9.6-4.3-9.6-9.6v-19.8c0-5.3 4.3-9.6 9.6-9.6h96.2c5.3 0 9.6 4.3 9.6 9.6l-0.1 19.8z" fill="#333E48" p-id="7550"></path><path d="M539.6 419.4c0 5.3 4.3 9.6 9.6 9.6h96.2c5.3 0 9.6-4.3 9.6-9.6v-19.8c0-5.3-4.3-9.6-9.6-9.6h-96.2c-5.3 0-9.6 4.3-9.6 9.6v19.8z" fill="" p-id="7551"></path><path d="M557 378.5v-94.3c0-5.3 4.3-9.6 9.6-9.6h61.3c5.3 0 9.6 4.3 9.6 9.6v94.3H557z" fill="#FFFFFF" p-id="7552"></path><path d="M566.6 274.6h61.3c5.3 0 9.6 4.3 9.6 9.6v15.2c0-5.3-4.3-9.6-9.6-9.6h-61.3c-5.3 0-9.6 4.3-9.6 9.6v-15.2c0-5.3 4.3-9.6 9.6-9.6z" fill="" p-id="7553"></path><path d="M539.6 407.9c0 5.3 4.3 9.6 9.6 9.6h96.2c5.3 0 9.6-4.3 9.6-9.6v-19.8c0-5.3-4.3-9.6-9.6-9.6h-96.2c-5.3 0-9.6 4.3-9.6 9.6v19.8z" fill="#333E48" p-id="7554"></path><path d="M959.8 937.3c0 4.2-3.5 7.7-7.7 7.7H71.8c-4.2 0-7.7-3.5-7.7-7.7v-27.6c0-4.2 3.5-7.7 7.7-7.7h880.3c4.2 0 7.7 3.5 7.7 7.7v27.6z" fill="#A4A9AD" p-id="7555"></path><path d="M202.5 902h618.8v43.1H202.5z" fill="#333E48" p-id="7556"></path></svg>