<?xml version="1.0" standalone="no"?><!DOCTYPE svg PUBLIC "-//W3C//DTD SVG 1.1//EN" "http://www.w3.org/Graphics/SVG/1.1/DTD/svg11.dtd"><svg t="1532334053019" class="icon" style="" viewBox="0 0 1024 1024" version="1.1" xmlns="http://www.w3.org/2000/svg" p-id="1711" xmlns:xlink="http://www.w3.org/1999/xlink" width="48" height="48"><defs><style type="text/css"></style></defs><path d="M846.145 750.044l-64.291-113.104v-236.386c0-49.287-17.906-101.255-50.419-146.322-33.075-45.847-79.511-81.723-130.748-101.020-0.301-0.113-0.601-0.22-0.902-0.317-1.179-0.378-5.542-1.772-11.956-3.614v-7.879c0-42.65-34.699-77.345-77.345-77.345-42.654 0-77.35 34.698-77.35 77.345v7.308c-5.978 1.709-9.762 2.918-10.196 3.061-0.224 0.070-0.449 0.153-0.673 0.228-52.017 18.842-99.248 54.678-132.987 100.913-33.12 45.391-51.359 97.825-51.359 147.638v236.387l-68.797 121.081c-8.278 14.427-8.227 32.396 0.142 46.895 8.317 14.405 23.883 23.347 40.628 23.347h170.011c9.744 63.312 64.593 111.941 130.585 111.941 65.99 0 120.836-48.629 130.582-111.941h169.981c25.915 0 46.997-21.056 46.997-46.935 0-11.747-4.205-22.734-11.897-31.282v0 0zM510.481 104.429c19.754 0 35.941 15.577 36.921 35.091-4.144-0.782-8.338-1.501-12.512-2.109-1.787-0.259-3.578-0.27-5.317-0.065-0.719-0.107-1.449-0.215-2.195-0.327-5.158-0.782-11.003-1.665-17.525-1.665-6.51 0-12.355 0.884-17.515 1.659-0.629 0.097-1.25 0.193-1.868 0.279-1.807-0.244-3.659-0.244-5.515 0.015-3.803 0.535-7.615 1.158-11.372 1.838 1.17-19.335 17.266-34.717 36.899-34.717v0 0zM510.481 899.83c-43.654 0-80.261-30.659-89.486-71.568h178.974c-9.229 40.909-45.831 71.568-89.486 71.568v0 0zM811.044 787.892h-601.154c-2.368 0-4.538-1.215-5.664-3.164-1.199-2.078-1.231-4.612-0.047-6.686l71.477-125.792c1.726-3.038 2.634-6.476 2.634-9.972v-241.723c0-87.379 67.619-177.785 157.355-210.45 2.945-0.933 26.156-8.14 49.558-11.986 1.393 0.148 2.816 0.163 4.246 0.010 3.148-0.317 6.078-0.761 8.91-1.184 4.298-0.649 8.006-1.21 11.492-1.21 3.491 0 7.201 0.561 11.503 1.21 2.828 0.422 5.75 0.867 8.899 1.184 1.293 0.133 2.578 0.139 3.843 0.027 24.287 4.066 49.078 11.83 52.818 13.020 88.15 33.421 154.559 123.346 154.559 209.383v241.725c0 3.497 0.912 6.934 2.644 9.977l68.159 119.913c0.95 1.679 2.139 3.21 3.529 4.546 1.199 1.158 1.858 2.797 1.858 4.612-0.006 3.68-2.911 6.563-6.622 6.563v0 0zM811.044 787.892z" p-id="1712" fill="#FF5722"></path></svg>