<?xml version="1.0" standalone="no"?><!DOCTYPE svg PUBLIC "-//W3C//DTD SVG 1.1//EN" "http://www.w3.org/Graphics/SVG/1.1/DTD/svg11.dtd"><svg t="1526549775004" class="icon" style="" viewBox="0 0 1024 1024" version="1.1" xmlns="http://www.w3.org/2000/svg" p-id="14156" xmlns:xlink="http://www.w3.org/1999/xlink" width="48" height="48"><defs><style type="text/css"></style></defs><path d="M512 512m-480 0a480 480 0 1 0 960 0 480 480 0 1 0-960 0Z" fill="#DEFCF9" p-id="14157"></path><path d="M691.2 441.6L512 179.2c-6.4-6.4-19.2-6.4-25.6 0l-179.2 256c-102.4 147.2-6.4 364.8 172.8 371.2h38.4c179.2-6.4 275.2-217.6 172.8-364.8z" fill="#18DFB7" p-id="14158"></path><path d="M608 524.8l-128 160c-6.4 6.4-12.8 0-12.8-6.4l12.8-83.2c0-6.4 0-6.4-6.4-6.4H377.6c-6.4-6.4-6.4-12.8 0-12.8L512 409.6c6.4-6.4 12.8 0 12.8 6.4l-25.6 89.6c0 6.4 6.4 6.4 12.8 6.4h96c6.4 0 6.4 6.4 0 12.8z" fill="#FFFFFF" p-id="14159"></path></svg>