<svg xmlns="http://www.w3.org/2000/svg" width="1440" height="900"><path d="M666,371L576,378L588,465Z" fill="#9a9a9d" stroke="#9a9a9d" stroke-width="1.51"/><path d="M576,378L415,426L588,465Z" fill="#939497" stroke="#939497" stroke-width="1.51"/><path d="M666,371L500,193L576,378Z" fill="#87888d" stroke="#87888d" stroke-width="1.51"/><path d="M576,378L418,247L415,426Z" fill="#808287" stroke="#808287" stroke-width="1.51"/><path d="M887,565L815,250L666,371Z" fill="#9e9e9f" stroke="#9e9e9f" stroke-width="1.51"/><path d="M709,155L500,193L666,371Z" fill="#818287" stroke="#818287" stroke-width="1.51"/><path d="M588,465L789,611L666,371Z" fill="#a5a5a6" stroke="#a5a5a6" stroke-width="1.51"/><path d="M543,689L789,611L588,465Z" fill="#8e8f93" stroke="#8e8f93" stroke-width="1.51"/><path d="M500,193L418,247L576,378Z" fill="#77787f" stroke="#77787f" stroke-width="1.51"/><path d="M815,250L709,155L666,371Z" fill="#8e8f93" stroke="#8e8f93" stroke-width="1.51"/><path d="M416,687L543,689L588,465Z" fill="#7b7d83" stroke="#7b7d83" stroke-width="1.51"/><path d="M789,611L887,565L666,371Z" fill="#9c9d9f" stroke="#9c9d9f" stroke-width="1.51"/><path d="M957,762L1030,668L887,565Z" fill="#6f7178" stroke="#6f7178" stroke-width="1.51"/><path d="M543,689L735,712L789,611Z" fill="#86888c" stroke="#86888c" stroke-width="1.51"/><path d="M543,689L732,910L735,712Z" fill="#75767c" stroke="#75767c" stroke-width="1.51"/><path d="M415,426L416,687L588,465Z" fill="#84868a" stroke="#84868a" stroke-width="1.51"/><path d="M887,565L999,405L815,250Z" fill="#919396" stroke="#919396" stroke-width="1.51"/><path d="M963,-17L722,-88L709,155Z" fill="#6c6e75" stroke="#6c6e75" stroke-width="1.51"/><path d="M1050,556L1027,418L999,405Z" fill="#898a8e" stroke="#898a8e" stroke-width="1.51"/><path d="M963,-17L709,155L815,250Z" fill="#6d6f77" stroke="#6d6f77" stroke-width="1.51"/><path d="M415,426L265,603L416,687Z" fill="#717379" stroke="#717379" stroke-width="1.51"/><path d="M187,442L265,603L415,426Z" fill="#75777d" stroke="#75777d" stroke-width="1.51"/><path d="M418,247L187,442L415,426Z" fill="#75777c" stroke="#75777c" stroke-width="1.51"/><path d="M887,565L1050,556L999,405Z" fill="#86878c" stroke="#86878c" stroke-width="1.51"/><path d="M1030,668L1050,556L887,565Z" fill="#77787e" stroke="#77787e" stroke-width="1.51"/><path d="M957,762L887,565L789,611Z" fill="#7c7d83" stroke="#7c7d83" stroke-width="1.51"/><path d="M735,712L957,762L789,611Z" fill="#7a7c82" stroke="#7a7c82" stroke-width="1.51"/><path d="M732,910L957,762L735,712Z" fill="#6c6e76" stroke="#6c6e76" stroke-width="1.51"/><path d="M418,247L235,85L187,442Z" fill="#5c5f68" stroke="#5c5f68" stroke-width="1.51"/><path d="M500,193L345,-2L418,247Z" fill="#5b5d66" stroke="#5b5d66" stroke-width="1.51"/><path d="M483,-104L345,-2L500,193Z" fill="#555761" stroke="#555761" stroke-width="1.51"/><path d="M466,1001L732,910L543,689Z" fill="#63656c" stroke="#63656c" stroke-width="1.51"/><path d="M466,1001L543,689L416,687Z" fill="#5a5d67" stroke="#5a5d67" stroke-width="1.51"/><path d="M345,-2L235,85L418,247Z" fill="#4b4f59" stroke="#4b4f59" stroke-width="1.51"/><path d="M709,155L483,-104L500,193Z" fill="#61636c" stroke="#61636c" stroke-width="1.51"/><path d="M1133,262L815,250L999,405Z" fill="#77797f" stroke="#77797f" stroke-width="1.51"/><path d="M1027,418L1133,262L999,405Z" fill="#787a80" stroke="#787a80" stroke-width="1.51"/><path d="M1323,462L1133,262L1027,418Z" fill="#6f7178" stroke="#6f7178" stroke-width="1.51"/><path d="M1323,462L1027,418L1050,556Z" fill="#797b81" stroke="#797b81" stroke-width="1.51"/><path d="M722,-88L483,-104L709,155Z" fill="#6d6f75" stroke="#6d6f75" stroke-width="1.51"/><path d="M75,730L362,960L416,687Z" fill="#464954" stroke="#464954" stroke-width="1.51"/><path d="M187,442L123,620L265,603Z" fill="#62646c" stroke="#62646c" stroke-width="1.51"/><path d="M42,388L123,620L187,442Z" fill="#707278" stroke="#707278" stroke-width="1.51"/><path d="M1133,262L963,-17L815,250Z" fill="#63656e" stroke="#63656e" stroke-width="1.51"/><path d="M957,762L1096,897L1030,668Z" fill="#565962" stroke="#565962" stroke-width="1.51"/><path d="M732,910L980,854L957,762Z" fill="#5f616a" stroke="#5f616a" stroke-width="1.51"/><path d="M235,85L42,388L187,442Z" fill="#5d5f68" stroke="#5d5f68" stroke-width="1.51"/><path d="M722,-88L622,-172L483,-104Z" fill="#707276" stroke="#707276" stroke-width="1.51"/><path d="M764,-295L622,-172L722,-88Z" fill="#7f7f81" stroke="#7f7f81" stroke-width="1.51"/><path d="M75,730L416,687L265,603Z" fill="#545761" stroke="#545761" stroke-width="1.51"/><path d="M362,960L466,1001L416,687Z" fill="#51535d" stroke="#51535d" stroke-width="1.51"/><path d="M732,910L902,1140L980,854Z" fill="#63646a" stroke="#63646a" stroke-width="1.51"/><path d="M466,1001L650,1030L732,910Z" fill="#696a6f" stroke="#696a6f" stroke-width="1.51"/><path d="M963,-17L891,-147L722,-88Z" fill="#6b6c72" stroke="#6b6c72" stroke-width="1.51"/><path d="M1032,-162L891,-147L963,-17Z" fill="#616369" stroke="#616369" stroke-width="1.51"/><path d="M123,620L75,730L265,603Z" fill="#545760" stroke="#545760" stroke-width="1.51"/><path d="M-35,706L75,730L123,620Z" fill="#53565e" stroke="#53565e" stroke-width="1.51"/><path d="M1133,262L1148,-7L963,-17Z" fill="#4a4d58" stroke="#4a4d58" stroke-width="1.51"/><path d="M-192,352L-46,483L42,388Z" fill="#76777b" stroke="#76777b" stroke-width="1.51"/><path d="M42,388L-46,483L123,620Z" fill="#717378" stroke="#717378" stroke-width="1.51"/><path d="M980,854L1096,897L957,762Z" fill="#51545e" stroke="#51545e" stroke-width="1.51"/><path d="M1030,668L1191,820L1050,556Z" fill="#5e6069" stroke="#5e6069" stroke-width="1.51"/><path d="M1068,1072L1096,897L980,854Z" fill="#4f525a" stroke="#4f525a" stroke-width="1.51"/><path d="M235,85L-46,250L42,388Z" fill="#575961" stroke="#575961" stroke-width="1.51"/><path d="M82,-55L19,64L235,85Z" fill="#3f424d" stroke="#3f424d" stroke-width="1.51"/><path d="M483,-104L405,-231L345,-2Z" fill="#595b62" stroke="#595b62" stroke-width="1.51"/><path d="M622,-172L405,-231L483,-104Z" fill="#67696d" stroke="#67696d" stroke-width="1.51"/><path d="M764,-295L405,-231L622,-172Z" fill="#757679" stroke="#757679" stroke-width="1.51"/><path d="M19,64L-46,250L235,85Z" fill="#474954" stroke="#474954" stroke-width="1.51"/><path d="M1096,897L1191,820L1030,668Z" fill="#4b4e58" stroke="#4b4e58" stroke-width="1.51"/><path d="M1133,262L1327,205L1148,-7Z" fill="#484b56" stroke="#484b56" stroke-width="1.51"/><path d="M82,-55L235,85L345,-2Z" fill="#3e414d" stroke="#3e414d" stroke-width="1.51"/><path d="M1385,569L1323,462L1050,556Z" fill="#65676f" stroke="#65676f" stroke-width="1.51"/><path d="M891,-147L764,-295L722,-88Z" fill="#78797c" stroke="#78797c" stroke-width="1.51"/><path d="M1148,-7L1032,-162L963,-17Z" fill="#55575f" stroke="#55575f" stroke-width="1.51"/><path d="M248,-259L82,-55L345,-2Z" fill="#454751" stroke="#454751" stroke-width="1.51"/><path d="M-46,483L-35,706L123,620Z" fill="#61636a" stroke="#61636a" stroke-width="1.51"/><path d="M75,730L91,978L362,960Z" fill="#3b3f49" stroke="#3b3f49" stroke-width="1.51"/><path d="M1323,462L1339,302L1133,262Z" fill="#61646b" stroke="#61646b" stroke-width="1.51"/><path d="M1032,-162L764,-295L891,-147Z" fill="#6e6f73" stroke="#6e6f73" stroke-width="1.51"/><path d="M1339,302L1327,205L1133,262Z" fill="#545760" stroke="#545760" stroke-width="1.51"/><path d="M1148,-7L1345,-274L1032,-162Z" fill="#4c4e56" stroke="#4c4e56" stroke-width="1.51"/><path d="M650,1030L902,1140L732,910Z" fill="#707275" stroke="#707275" stroke-width="1.51"/><path d="M466,1001L476,1160L650,1030Z" fill="#606267" stroke="#606267" stroke-width="1.51"/><path d="M337,1158L476,1160L466,1001Z" fill="#56575d" stroke="#56575d" stroke-width="1.51"/><path d="M337,1158L466,1001L362,960Z" fill="#515259" stroke="#515259" stroke-width="1.51"/><path d="M405,-231L248,-259L345,-2Z" fill="#54555d" stroke="#54555d" stroke-width="1.51"/><path d="M764,-295L248,-259L405,-231Z" fill="#696a6d" stroke="#696a6d" stroke-width="1.51"/><path d="M-14,995L91,978L75,730Z" fill="#40434c" stroke="#40434c" stroke-width="1.51"/><path d="M476,1160L902,1140L650,1030Z" fill="#727375" stroke="#727375" stroke-width="1.51"/><path d="M1096,897L1306,894L1191,820Z" fill="#3e414c" stroke="#3e414c" stroke-width="1.51"/><path d="M1323,462L1432,394L1339,302Z" fill="#696b71" stroke="#696b71" stroke-width="1.51"/><path d="M1339,302L1450,253L1327,205Z" fill="#55575f" stroke="#55575f" stroke-width="1.51"/><path d="M1191,820L1385,569L1050,556Z" fill="#565862" stroke="#565862" stroke-width="1.51"/><path d="M1191,820L1306,894L1385,569Z" fill="#434651" stroke="#434651" stroke-width="1.51"/><path d="M902,1140L1068,1072L980,854Z" fill="#57595f" stroke="#57595f" stroke-width="1.51"/><path d="M112,1124L337,1158L362,960Z" fill="#45464e" stroke="#45464e" stroke-width="1.51"/><path d="M1385,569L1432,394L1323,462Z" fill="#707176" stroke="#707176" stroke-width="1.51"/><path d="M-178,84L-192,352L-46,250Z" fill="#5d5f65" stroke="#5d5f65" stroke-width="1.51"/><path d="M-46,250L-192,352L42,388Z" fill="#6a6b71" stroke="#6a6b71" stroke-width="1.51"/><path d="M-46,483L-157,684L-35,706Z" fill="#62646a" stroke="#62646a" stroke-width="1.51"/><path d="M-156,69L-46,250L19,64Z" fill="#4b4e56" stroke="#4b4e56" stroke-width="1.51"/><path d="M-35,706L-14,995L75,730Z" fill="#434650" stroke="#434650" stroke-width="1.51"/><path d="M-210,546L-157,684L-46,483Z" fill="#6d6e73" stroke="#6d6e73" stroke-width="1.51"/><path d="M1068,1072L1306,894L1096,897Z" fill="#44464f" stroke="#44464f" stroke-width="1.51"/><path d="M1385,569L1626,506L1432,394Z" fill="#6f7074" stroke="#6f7074" stroke-width="1.51"/><path d="M82,-55L-10,-132L19,64Z" fill="#474851" stroke="#474851" stroke-width="1.51"/><path d="M248,-259L-10,-132L82,-55Z" fill="#494b53" stroke="#494b53" stroke-width="1.51"/><path d="M1432,394L1450,253L1339,302Z" fill="#5f6168" stroke="#5f6168" stroke-width="1.51"/><path d="M1327,205L1334,-48L1148,-7Z" fill="#3b3f4a" stroke="#3b3f4a" stroke-width="1.51"/><path d="M-192,352L-210,546L-46,483Z" fill="#7f8082" stroke="#7f8082" stroke-width="1.51"/><path d="M1396,-19L1334,-48L1327,205Z" fill="#3c3f49" stroke="#3c3f49" stroke-width="1.51"/><path d="M1032,-162L1345,-274L764,-295Z" fill="#5f6065" stroke="#5f6065" stroke-width="1.51"/><path d="M-10,-132L-156,69L19,64Z" fill="#474951" stroke="#474951" stroke-width="1.51"/><path d="M91,978L112,1124L362,960Z" fill="#3d4049" stroke="#3d4049" stroke-width="1.51"/><path d="M-143,1026L-14,995L-271,874Z" fill="#494b51" stroke="#494b51" stroke-width="1.51"/><path d="M-156,69L-178,84L-46,250Z" fill="#4f5159" stroke="#4f5159" stroke-width="1.51"/><path d="M-192,352L-271,874L-210,546Z" fill="#6d6f72" stroke="#6d6f72" stroke-width="1.51"/><path d="M-183,-214L-178,84L-156,69Z" fill="#4d4f55" stroke="#4d4f55" stroke-width="1.51"/><path d="M-14,995L112,1124L91,978Z" fill="#42444b" stroke="#42444b" stroke-width="1.51"/><path d="M1450,253L1396,-19L1327,205Z" fill="#454851" stroke="#454851" stroke-width="1.51"/><path d="M1406,1004L1476,814L1306,894Z" fill="#3d3f48" stroke="#3d3f48" stroke-width="1.51"/><path d="M1306,894L1476,814L1385,569Z" fill="#444751" stroke="#444751" stroke-width="1.51"/><path d="M1432,394L1670,347L1450,253Z" fill="#626469" stroke="#626469" stroke-width="1.51"/><path d="M1359,1161L1406,1004L1306,894Z" fill="#3e4048" stroke="#3e4048" stroke-width="1.51"/><path d="M1359,1161L1306,894L1068,1072Z" fill="#3d3f48" stroke="#3d3f48" stroke-width="1.51"/><path d="M-14,995L-18,1158L112,1124Z" fill="#45464c" stroke="#45464c" stroke-width="1.51"/><path d="M-271,874L-14,995L-35,706Z" fill="#464850" stroke="#464850" stroke-width="1.51"/><path d="M-271,874L-35,706L-157,684Z" fill="#51545b" stroke="#51545b" stroke-width="1.51"/><path d="M-143,1026L-18,1158L-14,995Z" fill="#47494e" stroke="#47494e" stroke-width="1.51"/><path d="M112,1124L-18,1158L337,1158Z" fill="#414349" stroke="#414349" stroke-width="1.51"/><path d="M337,1158L-18,1158L476,1160Z" fill="#46474d" stroke="#46474d" stroke-width="1.51"/><path d="M1466,-183L1345,-274L1334,-48Z" fill="#484a50" stroke="#484a50" stroke-width="1.51"/><path d="M1334,-48L1345,-274L1148,-7Z" fill="#43464f" stroke="#43464f" stroke-width="1.51"/><path d="M-210,546L-271,874L-157,684Z" fill="#5c5d63" stroke="#5c5d63" stroke-width="1.51"/><path d="M-178,84L-271,874L-192,352Z" fill="#818283" stroke="#818283" stroke-width="1.51"/><path d="M1677,747L1626,506L1385,569Z" fill="#5d5f64" stroke="#5d5f64" stroke-width="1.51"/><path d="M1644,-79L1466,-183L1396,-19Z" fill="#45474d" stroke="#45474d" stroke-width="1.51"/><path d="M1396,-19L1466,-183L1334,-48Z" fill="#43464e" stroke="#43464e" stroke-width="1.51"/><path d="M1677,747L1385,569L1476,814Z" fill="#4d5057" stroke="#4d5057" stroke-width="1.51"/><path d="M-10,-132L-183,-214L-156,69Z" fill="#4e5056" stroke="#4e5056" stroke-width="1.51"/><path d="M-178,84L-183,-214L-271,874Z" fill="#636569" stroke="#636569" stroke-width="1.51"/><path d="M248,-259L-183,-214L-10,-132Z" fill="#4f5156" stroke="#4f5156" stroke-width="1.51"/><path d="M1671,156L1396,-19L1450,253Z" fill="#44474f" stroke="#44474f" stroke-width="1.51"/><path d="M1743,891L1677,747L1476,814Z" fill="#3f4149" stroke="#3f4149" stroke-width="1.51"/><path d="M902,1140L1359,1161L1068,1072Z" fill="#4c4d53" stroke="#4c4d53" stroke-width="1.51"/><path d="M1390,1187L1359,1161L902,1140Z" fill="#414349" stroke="#414349" stroke-width="1.51"/><path d="M1626,506L1670,347L1432,394Z" fill="#717274" stroke="#717274" stroke-width="1.51"/><path d="M1670,347L1671,156L1450,253Z" fill="#58595e" stroke="#58595e" stroke-width="1.51"/><path d="M1359,1161L1390,1187L1406,1004Z" fill="#404248" stroke="#404248" stroke-width="1.51"/><path d="M476,1160L1390,1187L902,1140Z" fill="#616265" stroke="#616265" stroke-width="1.51"/><path d="M-18,1158L1390,1187L476,1160Z" fill="#6c6c6e" stroke="#6c6c6e" stroke-width="1.51"/><path d="M1626,506L1677,747L1670,347Z" fill="#6a6b6e" stroke="#6a6b6e" stroke-width="1.51"/><path d="M1670,347L1743,891L1671,156Z" fill="#767677" stroke="#767677" stroke-width="1.51"/><path d="M1743,891L1476,814L1406,1004Z" fill="#3f4048" stroke="#3f4048" stroke-width="1.51"/><path d="M1671,156L1644,-79L1396,-19Z" fill="#41424a" stroke="#41424a" stroke-width="1.51"/><path d="M1466,-183L1701,-272L1345,-274Z" fill="#4e4f52" stroke="#4e4f52" stroke-width="1.51"/><path d="M1390,1187L1583,1154L1406,1004Z" fill="#414248" stroke="#414248" stroke-width="1.51"/><path d="M1677,747L1743,891L1670,347Z" fill="#57585c" stroke="#57585c" stroke-width="1.51"/><path d="M1583,1154L1743,891L1406,1004Z" fill="#414248" stroke="#414248" stroke-width="1.51"/><path d="M1671,156L1701,-272L1644,-79Z" fill="#46484c" stroke="#46484c" stroke-width="1.51"/><path d="M1644,-79L1701,-272L1466,-183Z" fill="#4b4c50" stroke="#4b4c50" stroke-width="1.51"/><path d="M1345,-274L1701,-272L764,-295Z" fill="#4d4f55" stroke="#4d4f55" stroke-width="1.51"/><path d="M1743,891L1701,-272L1671,156Z" fill="#5a5b5f" stroke="#5a5b5f" stroke-width="1.51"/></svg>