<svg xmlns="http://www.w3.org/2000/svg" width="1440" height="900"><path d="M649,491L698,236L452,372Z" fill="#a5a5a5" stroke="#a5a5a5" stroke-width="1.51"/><path d="M698,236L409,250L452,372Z" fill="#b1b1b1" stroke="#b1b1b1" stroke-width="1.51"/><path d="M649,491L965,458L698,236Z" fill="#979797" stroke="#979797" stroke-width="1.51"/><path d="M452,372L483,717L649,491Z" fill="#9c9c9c" stroke="#9c9c9c" stroke-width="1.51"/><path d="M649,491L786,714L965,458Z" fill="#898989" stroke="#898989" stroke-width="1.51"/><path d="M256,643L483,717L452,372Z" fill="#a0a0a0" stroke="#a0a0a0" stroke-width="1.51"/><path d="M409,250L206,447L452,372Z" fill="#b5b5b5" stroke="#b5b5b5" stroke-width="1.51"/><path d="M483,717L786,714L649,491Z" fill="#8c8c8c" stroke="#8c8c8c" stroke-width="1.51"/><path d="M965,458L1003,257L698,236Z" fill="#979797" stroke="#979797" stroke-width="1.51"/><path d="M698,236L690,-59L409,250Z" fill="#b6b6b6" stroke="#b6b6b6" stroke-width="1.51"/><path d="M409,250L193,128L206,447Z" fill="#c0c0c0" stroke="#c0c0c0" stroke-width="1.51"/><path d="M1046,-12L690,-59L698,236Z" fill="#aeaeae" stroke="#aeaeae" stroke-width="1.51"/><path d="M206,447L256,643L452,372Z" fill="#acacac" stroke="#acacac" stroke-width="1.51"/><path d="M392,-147L193,128L409,250Z" fill="#cacaca" stroke="#cacaca" stroke-width="1.51"/><path d="M690,-59L392,-147L409,250Z" fill="#c5c5c5" stroke="#c5c5c5" stroke-width="1.51"/><path d="M965,458L1164,381L1003,257Z" fill="#898989" stroke="#898989" stroke-width="1.51"/><path d="M786,714L1041,667L965,458Z" fill="#7d7d7d" stroke="#7d7d7d" stroke-width="1.51"/><path d="M1041,667L1164,381L965,458Z" fill="#7e7e7e" stroke="#7e7e7e" stroke-width="1.51"/><path d="M1003,257L1046,-12L698,236Z" fill="#a1a1a1" stroke="#a1a1a1" stroke-width="1.51"/><path d="M1240,126L1046,-12L1003,257Z" fill="#989898" stroke="#989898" stroke-width="1.51"/><path d="M690,-59L773,-326L392,-147Z" fill="#c6c6c6" stroke="#c6c6c6" stroke-width="1.51"/><path d="M786,714L922,956L1041,667Z" fill="#717171" stroke="#717171" stroke-width="1.51"/><path d="M483,717L786,911L786,714Z" fill="#7f7f7f" stroke="#7f7f7f" stroke-width="1.51"/><path d="M394,1003L786,911L483,717Z" fill="#808080" stroke="#808080" stroke-width="1.51"/><path d="M392,-147L137,-121L193,128Z" fill="#d6d6d6" stroke="#d6d6d6" stroke-width="1.51"/><path d="M193,128L-43,194L206,447Z" fill="#c8c8c8" stroke="#c8c8c8" stroke-width="1.51"/><path d="M-32,-68L-43,194L193,128Z" fill="#d7d7d7" stroke="#d7d7d7" stroke-width="1.51"/><path d="M206,447L1,717L256,643Z" fill="#a9a9a9" stroke="#a9a9a9" stroke-width="1.51"/><path d="M922,956L1158,722L1041,667Z" fill="#6a6a6a" stroke="#6a6a6a" stroke-width="1.51"/><path d="M1041,667L1158,722L1164,381Z" fill="#737373" stroke="#737373" stroke-width="1.51"/><path d="M1425,428L1240,126L1164,381Z" fill="#808080" stroke="#808080" stroke-width="1.51"/><path d="M1164,381L1240,126L1003,257Z" fill="#8d8d8d" stroke="#8d8d8d" stroke-width="1.51"/><path d="M245,998L394,1003L483,717Z" fill="#878787" stroke="#878787" stroke-width="1.51"/><path d="M245,998L483,717L256,643Z" fill="#939393" stroke="#939393" stroke-width="1.51"/><path d="M786,911L922,956L786,714Z" fill="#707070" stroke="#707070" stroke-width="1.51"/><path d="M654,1180L922,956L786,911Z" fill="#636363" stroke="#636363" stroke-width="1.51"/><path d="M1030,-276L690,-59L1046,-12Z" fill="#b0b0b0" stroke="#b0b0b0" stroke-width="1.51"/><path d="M1030,-276L773,-326L690,-59Z" fill="#bababa" stroke="#bababa" stroke-width="1.51"/><path d="M392,-147L154,-289L137,-121Z" fill="#dddddd" stroke="#dddddd" stroke-width="1.51"/><path d="M-128,375L1,717L206,447Z" fill="#b6b6b6" stroke="#b6b6b6" stroke-width="1.51"/><path d="M773,-326L396,-348L392,-147Z" fill="#d2d2d2" stroke="#d2d2d2" stroke-width="1.51"/><path d="M-43,194L-128,375L206,447Z" fill="#c6c6c6" stroke="#c6c6c6" stroke-width="1.51"/><path d="M1,717L245,998L256,643Z" fill="#9b9b9b" stroke="#9b9b9b" stroke-width="1.51"/><path d="M-43,194L-371,220L-128,375Z" fill="#d3d3d3" stroke="#d3d3d3" stroke-width="1.51"/><path d="M137,-121L-32,-68L193,128Z" fill="#dbdbdb" stroke="#dbdbdb" stroke-width="1.51"/><path d="M-116,-260L-32,-68L137,-121Z" fill="#e6e6e6" stroke="#e6e6e6" stroke-width="1.51"/><path d="M1251,-145L1030,-276L1046,-12Z" fill="#a5a5a5" stroke="#a5a5a5" stroke-width="1.51"/><path d="M396,-348L154,-289L392,-147Z" fill="#dddddd" stroke="#dddddd" stroke-width="1.51"/><path d="M1240,126L1251,-145L1046,-12Z" fill="#9b9b9b" stroke="#9b9b9b" stroke-width="1.51"/><path d="M1158,722L1425,428L1164,381Z" fill="#727272" stroke="#727272" stroke-width="1.51"/><path d="M1240,126L1469,139L1251,-145Z" fill="#8f8f8f" stroke="#8f8f8f" stroke-width="1.51"/><path d="M456,1209L654,1180L394,1003Z" fill="#686868" stroke="#686868" stroke-width="1.51"/><path d="M394,1003L654,1180L786,911Z" fill="#6c6c6c" stroke="#6c6c6c" stroke-width="1.51"/><path d="M235,1268L456,1209L394,1003Z" fill="#6c6c6c" stroke="#6c6c6c" stroke-width="1.51"/><path d="M1207,1202L1217,985L922,956Z" fill="#4d4d4d" stroke="#4d4d4d" stroke-width="1.51"/><path d="M922,956L1217,985L1158,722Z" fill="#5e5e5e" stroke="#5e5e5e" stroke-width="1.51"/><path d="M1158,722L1437,743L1425,428Z" fill="#636363" stroke="#636363" stroke-width="1.51"/><path d="M1425,428L1469,139L1240,126Z" fill="#7e7e7e" stroke="#7e7e7e" stroke-width="1.51"/><path d="M1,717L-69,944L245,998Z" fill="#979797" stroke="#979797" stroke-width="1.51"/><path d="M245,998L235,1268L394,1003Z" fill="#777777" stroke="#777777" stroke-width="1.51"/><path d="M-338,663L-69,944L1,717Z" fill="#a7a7a7" stroke="#a7a7a7" stroke-width="1.51"/><path d="M1425,428L1724,461L1469,139Z" fill="#676767" stroke="#676767" stroke-width="1.51"/><path d="M1217,985L1437,743L1158,722Z" fill="#5a5a5a" stroke="#5a5a5a" stroke-width="1.51"/><path d="M1030,-276L1230,-335L773,-326Z" fill="#b2b2b2" stroke="#b2b2b2" stroke-width="1.51"/><path d="M773,-326L1677,-386L396,-348Z" fill="#b7b7b7" stroke="#b7b7b7" stroke-width="1.51"/><path d="M1251,-145L1230,-335L1030,-276Z" fill="#a6a6a6" stroke="#a6a6a6" stroke-width="1.51"/><path d="M1461,-344L1230,-335L1251,-145Z" fill="#9e9e9e" stroke="#9e9e9e" stroke-width="1.51"/><path d="M-32,-68L-258,-21L-43,194Z" fill="#e0e0e0" stroke="#e0e0e0" stroke-width="1.51"/><path d="M-128,375L-338,663L1,717Z" fill="#b7b7b7" stroke="#b7b7b7" stroke-width="1.51"/><path d="M-116,-260L-258,-21L-32,-68Z" fill="#e9e9e9" stroke="#e9e9e9" stroke-width="1.51"/><path d="M-376,-387L-116,-260L154,-289Z" fill="#f1f1f1" stroke="#f1f1f1" stroke-width="1.51"/><path d="M154,-289L-116,-260L137,-121Z" fill="#e7e7e7" stroke="#e7e7e7" stroke-width="1.51"/><path d="M456,1209L930,1267L654,1180Z" fill="#565656" stroke="#565656" stroke-width="1.51"/><path d="M654,1180L930,1267L922,956Z" fill="#535353" stroke="#535353" stroke-width="1.51"/><path d="M-258,-21L-371,220L-43,194Z" fill="#dedede" stroke="#dedede" stroke-width="1.51"/><path d="M456,1209L235,1268L930,1267Z" fill="#5c5c5c" stroke="#5c5c5c" stroke-width="1.51"/><path d="M-84,1169L235,1268L245,998Z" fill="#777777" stroke="#777777" stroke-width="1.51"/><path d="M-69,944L-84,1169L245,998Z" fill="#878787" stroke="#878787" stroke-width="1.51"/><path d="M-387,418L-338,663L-128,375Z" fill="#c2c2c2" stroke="#c2c2c2" stroke-width="1.51"/><path d="M-371,220L-387,418L-128,375Z" fill="#cfcfcf" stroke="#cfcfcf" stroke-width="1.51"/><path d="M930,1267L1207,1202L922,956Z" fill="#494949" stroke="#494949" stroke-width="1.51"/><path d="M1217,985L1544,929L1437,743Z" fill="#4c4c4c" stroke="#4c4c4c" stroke-width="1.51"/><path d="M1469,139L1545,-112L1251,-145Z" fill="#8a8a8a" stroke="#8a8a8a" stroke-width="1.51"/><path d="M1686,-83L1545,-112L1469,139Z" fill="#7c7c7c" stroke="#7c7c7c" stroke-width="1.51"/><path d="M-340,951L-84,1169L-69,944Z" fill="#909090" stroke="#909090" stroke-width="1.51"/><path d="M1545,-112L1461,-344L1251,-145Z" fill="#919191" stroke="#919191" stroke-width="1.51"/><path d="M1230,-335L1677,-386L773,-326Z" fill="#a5a5a5" stroke="#a5a5a5" stroke-width="1.51"/><path d="M1437,743L1724,461L1425,428Z" fill="#595959" stroke="#595959" stroke-width="1.51"/><path d="M1522,1217L1544,929L1217,985Z" fill="#3a3a3a" stroke="#3a3a3a" stroke-width="1.51"/><path d="M-338,663L-340,951L-69,944Z" fill="#a3a3a3" stroke="#a3a3a3" stroke-width="1.51"/><path d="M-387,418L-340,951L-338,663Z" fill="#b4b4b4" stroke="#b4b4b4" stroke-width="1.51"/><path d="M1803,666L1724,461L1437,743Z" fill="#4b4b4b" stroke="#4b4b4b" stroke-width="1.51"/><path d="M1545,-112L1677,-386L1461,-344Z" fill="#878787" stroke="#878787" stroke-width="1.51"/><path d="M1754,148L1686,-83L1469,139Z" fill="#727272" stroke="#727272" stroke-width="1.51"/><path d="M1724,461L1754,148L1469,139Z" fill="#666666" stroke="#666666" stroke-width="1.51"/><path d="M-371,220L-376,-387L-387,418Z" fill="#e4e4e4" stroke="#e4e4e4" stroke-width="1.51"/><path d="M-258,-21L-376,-387L-371,220Z" fill="#ececec" stroke="#ececec" stroke-width="1.51"/><path d="M-116,-260L-376,-387L-258,-21Z" fill="#f2f2f2" stroke="#f2f2f2" stroke-width="1.51"/><path d="M396,-348L-376,-387L154,-289Z" fill="#ebebeb" stroke="#ebebeb" stroke-width="1.51"/><path d="M1677,-386L-376,-387L396,-348Z" fill="#d1d1d1" stroke="#d1d1d1" stroke-width="1.51"/><path d="M1724,461L1803,666L1754,148Z" fill="#525252" stroke="#525252" stroke-width="1.51"/><path d="M1544,929L1803,666L1437,743Z" fill="#434343" stroke="#434343" stroke-width="1.51"/><path d="M1544,929L1781,901L1803,666Z" fill="#393939" stroke="#393939" stroke-width="1.51"/><path d="M1207,1202L1522,1217L1217,985Z" fill="#393939" stroke="#393939" stroke-width="1.51"/><path d="M930,1267L1522,1217L1207,1202Z" fill="#383838" stroke="#383838" stroke-width="1.51"/><path d="M-84,1169L-306,1284L235,1268Z" fill="#777777" stroke="#777777" stroke-width="1.51"/><path d="M235,1268L-306,1284L930,1267Z" fill="#676767" stroke="#676767" stroke-width="1.51"/><path d="M-340,951L-306,1284L-84,1169Z" fill="#858585" stroke="#858585" stroke-width="1.51"/><path d="M1769,1202L1781,901L1544,929Z" fill="#2a2a2a" stroke="#2a2a2a" stroke-width="1.51"/><path d="M1461,-344L1677,-386L1230,-335Z" fill="#939393" stroke="#939393" stroke-width="1.51"/><path d="M1686,-83L1677,-386L1545,-112Z" fill="#7f7f7f" stroke="#7f7f7f" stroke-width="1.51"/><path d="M1754,148L1677,-386L1686,-83Z" fill="#767676" stroke="#767676" stroke-width="1.51"/><path d="M1522,1217L1769,1202L1544,929Z" fill="#252525" stroke="#252525" stroke-width="1.51"/><path d="M1781,901L1769,1202L1803,666Z" fill="#2e2e2e" stroke="#2e2e2e" stroke-width="1.51"/><path d="M930,1267L1769,1202L1522,1217Z" fill="#2c2c2c" stroke="#2c2c2c" stroke-width="1.51"/></svg>