<svg xmlns="http://www.w3.org/2000/svg" width="1440" height="900"><path d="M753,553L594,515L715,721Z" fill="#959598" stroke="#959598" stroke-width="1.51"/><path d="M715,721L765,748L753,553Z" fill="#8a8b8f" stroke="#8a8b8f" stroke-width="1.51"/><path d="M594,515L544,805L715,721Z" fill="#818287" stroke="#818287" stroke-width="1.51"/><path d="M715,721L544,805L765,748Z" fill="#7b7c82" stroke="#7b7c82" stroke-width="1.51"/><path d="M594,515L374,700L544,805Z" fill="#75777e" stroke="#75777e" stroke-width="1.51"/><path d="M626,272L447,418L594,515Z" fill="#959699" stroke="#959699" stroke-width="1.51"/><path d="M447,418L374,700L594,515Z" fill="#86878b" stroke="#86878b" stroke-width="1.51"/><path d="M838,1055L890,800L765,748Z" fill="#666970" stroke="#666970" stroke-width="1.51"/><path d="M765,748L890,800L753,553Z" fill="#7f8186" stroke="#7f8186" stroke-width="1.51"/><path d="M753,553L626,272L594,515Z" fill="#a7a8a8" stroke="#a7a8a8" stroke-width="1.51"/><path d="M848,169L626,272L753,553Z" fill="#9a9a9d" stroke="#9a9a9d" stroke-width="1.51"/><path d="M890,800L1081,670L753,553Z" fill="#787a80" stroke="#787a80" stroke-width="1.51"/><path d="M838,1055L979,819L890,800Z" fill="#60626a" stroke="#60626a" stroke-width="1.51"/><path d="M447,418L239,577L374,700Z" fill="#76787e" stroke="#76787e" stroke-width="1.51"/><path d="M317,243L239,577L447,418Z" fill="#808186" stroke="#808186" stroke-width="1.51"/><path d="M979,819L1081,670L890,800Z" fill="#64666e" stroke="#64666e" stroke-width="1.51"/><path d="M544,805L838,1055L765,748Z" fill="#72737a" stroke="#72737a" stroke-width="1.51"/><path d="M374,700L463,1007L544,805Z" fill="#595c65" stroke="#595c65" stroke-width="1.51"/><path d="M179,1016L463,1007L374,700Z" fill="#4d4f59" stroke="#4d4f59" stroke-width="1.51"/><path d="M1081,670L1084,427L753,553Z" fill="#84858a" stroke="#84858a" stroke-width="1.51"/><path d="M463,1007L838,1055L544,805Z" fill="#686a70" stroke="#686a70" stroke-width="1.51"/><path d="M1357,719L1271,477L1081,670Z" fill="#5e616a" stroke="#5e616a" stroke-width="1.51"/><path d="M1084,427L848,169L753,553Z" fill="#919295" stroke="#919295" stroke-width="1.51"/><path d="M255,154L317,243L292,64Z" fill="#565862" stroke="#565862" stroke-width="1.51"/><path d="M626,272L317,243L447,418Z" fill="#7e7f85" stroke="#7e7f85" stroke-width="1.51"/><path d="M463,1007L565,1171L838,1055Z" fill="#6b6c71" stroke="#6b6c71" stroke-width="1.51"/><path d="M1084,427L1151,302L848,169Z" fill="#77797f" stroke="#77797f" stroke-width="1.51"/><path d="M1271,477L1151,302L1084,427Z" fill="#77797f" stroke="#77797f" stroke-width="1.51"/><path d="M317,243L50,404L239,577Z" fill="#71737a" stroke="#71737a" stroke-width="1.51"/><path d="M292,64L317,243L626,272Z" fill="#676971" stroke="#676971" stroke-width="1.51"/><path d="M463,1007L460,1226L565,1171Z" fill="#606166" stroke="#606166" stroke-width="1.51"/><path d="M0,720L179,1016L374,700Z" fill="#424651" stroke="#424651" stroke-width="1.51"/><path d="M0,720L374,700L239,577Z" fill="#585b65" stroke="#585b65" stroke-width="1.51"/><path d="M1081,670L1271,477L1084,427Z" fill="#76787e" stroke="#76787e" stroke-width="1.51"/><path d="M1357,719L1081,670L1385,832Z" fill="#4a4e58" stroke="#4a4e58" stroke-width="1.51"/><path d="M179,1016L460,1226L463,1007Z" fill="#52545b" stroke="#52545b" stroke-width="1.51"/><path d="M565,1171L1046,1213L838,1055Z" fill="#6d6e71" stroke="#6d6e71" stroke-width="1.51"/><path d="M255,154L50,404L317,243Z" fill="#5d6069" stroke="#5d6069" stroke-width="1.51"/><path d="M50,404L0,720L239,577Z" fill="#62656d" stroke="#62656d" stroke-width="1.51"/><path d="M255,154L-28,321L50,404Z" fill="#5d5f68" stroke="#5d5f68" stroke-width="1.51"/><path d="M692,-64L292,64L626,272Z" fill="#65686f" stroke="#65686f" stroke-width="1.51"/><path d="M848,169L692,-64L626,272Z" fill="#7d7f84" stroke="#7d7f84" stroke-width="1.51"/><path d="M903,-107L692,-64L848,169Z" fill="#6a6c73" stroke="#6a6c73" stroke-width="1.51"/><path d="M1151,302L999,7L848,169Z" fill="#656870" stroke="#656870" stroke-width="1.51"/><path d="M1182,89L999,7L1151,302Z" fill="#565962" stroke="#565962" stroke-width="1.51"/><path d="M1385,832L1081,670L979,819Z" fill="#52555f" stroke="#52555f" stroke-width="1.51"/><path d="M838,1055L1046,1213L979,819Z" fill="#5d5f65" stroke="#5d5f65" stroke-width="1.51"/><path d="M460,1226L1046,1213L565,1171Z" fill="#747576" stroke="#747576" stroke-width="1.51"/><path d="M50,404L-108,549L0,720Z" fill="#686a70" stroke="#686a70" stroke-width="1.51"/><path d="M158,55L-28,321L255,154Z" fill="#4b4e59" stroke="#4b4e59" stroke-width="1.51"/><path d="M1410,280L1151,302L1271,477Z" fill="#65686f" stroke="#65686f" stroke-width="1.51"/><path d="M1410,280L1182,89L1151,302Z" fill="#565962" stroke="#565962" stroke-width="1.51"/><path d="M292,64L158,55L255,154Z" fill="#474b55" stroke="#474b55" stroke-width="1.51"/><path d="M163,-147L158,55L292,64Z" fill="#41454f" stroke="#41454f" stroke-width="1.51"/><path d="M1290,1184L1385,832L979,819Z" fill="#42454f" stroke="#42454f" stroke-width="1.51"/><path d="M-28,321L-108,549L50,404Z" fill="#74767b" stroke="#74767b" stroke-width="1.51"/><path d="M0,720L-107,836L179,1016Z" fill="#3d404b" stroke="#3d404b" stroke-width="1.51"/><path d="M888,-215L903,-107L1052,-259Z" fill="#67696e" stroke="#67696e" stroke-width="1.51"/><path d="M999,7L903,-107L848,169Z" fill="#5f616a" stroke="#5f616a" stroke-width="1.51"/><path d="M-108,549L-107,836L0,720Z" fill="#555760" stroke="#555760" stroke-width="1.51"/><path d="M179,1016L100,1235L460,1226Z" fill="#484a50" stroke="#484a50" stroke-width="1.51"/><path d="M1357,719L1443,526L1271,477Z" fill="#60636b" stroke="#60636b" stroke-width="1.51"/><path d="M1472,695L1443,526L1357,719Z" fill="#575961" stroke="#575961" stroke-width="1.51"/><path d="M888,-215L506,-168L692,-64Z" fill="#7a7b7e" stroke="#7a7b7e" stroke-width="1.51"/><path d="M692,-64L506,-168L292,64Z" fill="#60626a" stroke="#60626a" stroke-width="1.51"/><path d="M1447,834L1472,695L1357,719Z" fill="#484b55" stroke="#484b55" stroke-width="1.51"/><path d="M1529,1115L1447,834L1385,832Z" fill="#3c3f48" stroke="#3c3f48" stroke-width="1.51"/><path d="M1385,832L1447,834L1357,719Z" fill="#424550" stroke="#424550" stroke-width="1.51"/><path d="M460,1226L1645,1251L1046,1213Z" fill="#57585c" stroke="#57585c" stroke-width="1.51"/><path d="M-94,1111L100,1235L179,1016Z" fill="#41424a" stroke="#41424a" stroke-width="1.51"/><path d="M1573,334L1410,280L1443,526Z" fill="#696b71" stroke="#696b71" stroke-width="1.51"/><path d="M1443,526L1410,280L1271,477Z" fill="#6f7177" stroke="#6f7177" stroke-width="1.51"/><path d="M1046,1213L1290,1184L979,819Z" fill="#4f5158" stroke="#4f5158" stroke-width="1.51"/><path d="M903,-107L888,-215L692,-64Z" fill="#707177" stroke="#707177" stroke-width="1.51"/><path d="M1052,-259L903,-107L999,7Z" fill="#606268" stroke="#606268" stroke-width="1.51"/><path d="M1052,-259L999,7L1182,89Z" fill="#53565e" stroke="#53565e" stroke-width="1.51"/><path d="M-107,836L-94,1111L179,1016Z" fill="#40434b" stroke="#40434b" stroke-width="1.51"/><path d="M163,-147L-63,80L158,55Z" fill="#3e414b" stroke="#3e414b" stroke-width="1.51"/><path d="M158,55L-63,80L-28,321Z" fill="#4c4f58" stroke="#4c4f58" stroke-width="1.51"/><path d="M-28,321L-287,445L-108,549Z" fill="#7a7b7f" stroke="#7a7b7f" stroke-width="1.51"/><path d="M272,-242L163,-147L292,64Z" fill="#4b4d56" stroke="#4b4d56" stroke-width="1.51"/><path d="M272,-242L292,64L506,-168Z" fill="#555860" stroke="#555860" stroke-width="1.51"/><path d="M-107,836L-244,853L-94,1111Z" fill="#45474f" stroke="#45474f" stroke-width="1.51"/><path d="M-309,684L-244,853L-107,836Z" fill="#4f5059" stroke="#4f5059" stroke-width="1.51"/><path d="M-309,684L-107,836L-108,549Z" fill="#5a5d64" stroke="#5a5d64" stroke-width="1.51"/><path d="M888,-215L272,-242L506,-168Z" fill="#6e6f74" stroke="#6e6f74" stroke-width="1.51"/><path d="M-269,115L-287,445L-28,321Z" fill="#68696f" stroke="#68696f" stroke-width="1.51"/><path d="M1450,-187L1364,-239L1182,89Z" fill="#41444e" stroke="#41444e" stroke-width="1.51"/><path d="M1813,495L1573,334L1443,526Z" fill="#757679" stroke="#757679" stroke-width="1.51"/><path d="M1813,495L1443,526L1827,613Z" fill="#69696d" stroke="#69696d" stroke-width="1.51"/><path d="M888,-215L1052,-259L272,-242Z" fill="#7f8082" stroke="#7f8082" stroke-width="1.51"/><path d="M1364,-239L1052,-259L1182,89Z" fill="#4b4e56" stroke="#4b4e56" stroke-width="1.51"/><path d="M-287,445L-309,684L-108,549Z" fill="#707175" stroke="#707175" stroke-width="1.51"/><path d="M1290,1184L1529,1115L1385,832Z" fill="#3d4048" stroke="#3d4048" stroke-width="1.51"/><path d="M1827,613L1443,526L1472,695Z" fill="#5e5f65" stroke="#5e5f65" stroke-width="1.51"/><path d="M3,-339L-63,80L163,-147Z" fill="#464851" stroke="#464851" stroke-width="1.51"/><path d="M-276,-252L-243,97L-63,80Z" fill="#484a52" stroke="#484a52" stroke-width="1.51"/><path d="M-63,80L-243,97L-28,321Z" fill="#52545d" stroke="#52545d" stroke-width="1.51"/><path d="M-243,97L-269,115L-28,321Z" fill="#56585f" stroke="#56585f" stroke-width="1.51"/><path d="M-287,445L-385,1087L-309,684Z" fill="#595b60" stroke="#595b60" stroke-width="1.51"/><path d="M1592,3L1182,89L1410,280Z" fill="#444852" stroke="#444852" stroke-width="1.51"/><path d="M1573,334L1592,3L1410,280Z" fill="#51545b" stroke="#51545b" stroke-width="1.51"/><path d="M1822,183L1592,3L1573,334Z" fill="#4e5057" stroke="#4e5057" stroke-width="1.51"/><path d="M1592,3L1450,-187L1182,89Z" fill="#3e414b" stroke="#3e414b" stroke-width="1.51"/><path d="M-309,684L-385,1087L-244,853Z" fill="#494b53" stroke="#494b53" stroke-width="1.51"/><path d="M-244,853L-385,1087L-94,1111Z" fill="#494b51" stroke="#494b51" stroke-width="1.51"/><path d="M-94,1111L-385,1087L100,1235Z" fill="#47484e" stroke="#47484e" stroke-width="1.51"/><path d="M-276,-252L-385,1087L-287,445Z" fill="#808082" stroke="#808082" stroke-width="1.51"/><path d="M272,-242L3,-339L163,-147Z" fill="#474a52" stroke="#474a52" stroke-width="1.51"/><path d="M-243,97L-276,-252L-269,115Z" fill="#4a4c54" stroke="#4a4c54" stroke-width="1.51"/><path d="M1052,-259L3,-339L272,-242Z" fill="#67686c" stroke="#67686c" stroke-width="1.51"/><path d="M1724,-282L3,-339L1052,-259Z" fill="#6e7073" stroke="#6e7073" stroke-width="1.51"/><path d="M1807,810L1472,695L1447,834Z" fill="#464851" stroke="#464851" stroke-width="1.51"/><path d="M1529,1115L1807,810L1447,834Z" fill="#3e4048" stroke="#3e4048" stroke-width="1.51"/><path d="M1807,810L1827,613L1472,695Z" fill="#525359" stroke="#525359" stroke-width="1.51"/><path d="M1529,1115L1645,1251L1807,810Z" fill="#414248" stroke="#414248" stroke-width="1.51"/><path d="M1290,1184L1645,1251L1529,1115Z" fill="#414248" stroke="#414248" stroke-width="1.51"/><path d="M1046,1213L1645,1251L1290,1184Z" fill="#404148" stroke="#404148" stroke-width="1.51"/><path d="M100,1235L1645,1251L460,1226Z" fill="#767777" stroke="#767777" stroke-width="1.51"/><path d="M1827,613L1822,183L1813,495Z" fill="#757576" stroke="#757576" stroke-width="1.51"/><path d="M1813,495L1822,183L1573,334Z" fill="#66676b" stroke="#66676b" stroke-width="1.51"/><path d="M1592,3L1724,-282L1450,-187Z" fill="#46484e" stroke="#46484e" stroke-width="1.51"/><path d="M3,-339L-276,-252L-63,80Z" fill="#4d4f55" stroke="#4d4f55" stroke-width="1.51"/><path d="M-269,115L-276,-252L-287,445Z" fill="#505159" stroke="#505159" stroke-width="1.51"/><path d="M1822,183L1835,-95L1592,3Z" fill="#3f4149" stroke="#3f4149" stroke-width="1.51"/><path d="M1450,-187L1724,-282L1364,-239Z" fill="#4a4b51" stroke="#4a4b51" stroke-width="1.51"/><path d="M1827,613L1835,-95L1822,183Z" fill="#595a5d" stroke="#595a5d" stroke-width="1.51"/><path d="M1835,-95L1724,-282L1592,3Z" fill="#47484d" stroke="#47484d" stroke-width="1.51"/><path d="M1364,-239L1724,-282L1052,-259Z" fill="#494b52" stroke="#494b52" stroke-width="1.51"/></svg>