<svg xmlns="http://www.w3.org/2000/svg" width="1440" height="900"><path d="M790,512L940,387L778,378Z" fill="#9995c6" stroke="#9995c6" stroke-width="1.51"/><path d="M790,512L925,531L940,387Z" fill="#928ec3" stroke="#928ec3" stroke-width="1.51"/><path d="M940,387L804,239L778,378Z" fill="#a19ecb" stroke="#a19ecb" stroke-width="1.51"/><path d="M778,378L648,530L790,512Z" fill="#9b97c7" stroke="#9b97c7" stroke-width="1.51"/><path d="M804,239L647,368L778,378Z" fill="#a7a4ce" stroke="#a7a4ce" stroke-width="1.51"/><path d="M925,531L1066,511L940,387Z" fill="#8d88c0" stroke="#8d88c0" stroke-width="1.51"/><path d="M940,387L929,228L804,239Z" fill="#a2a0cc" stroke="#a2a0cc" stroke-width="1.51"/><path d="M1069,365L929,228L940,387Z" fill="#9996c8" stroke="#9996c8" stroke-width="1.51"/><path d="M1066,511L1069,365L940,387Z" fill="#8f89c0" stroke="#8f89c0" stroke-width="1.51"/><path d="M790,512L791,655L925,531Z" fill="#8d89c0" stroke="#8d89c0" stroke-width="1.51"/><path d="M925,531L1061,658L1066,511Z" fill="#837dba" stroke="#837dba" stroke-width="1.51"/><path d="M663,652L791,655L790,512Z" fill="#8f8bc1" stroke="#8f8bc1" stroke-width="1.51"/><path d="M647,368L648,530L778,378Z" fill="#a29eca" stroke="#a29eca" stroke-width="1.51"/><path d="M791,655L939,653L925,531Z" fill="#8682bd" stroke="#8682bd" stroke-width="1.51"/><path d="M648,530L663,652L790,512Z" fill="#9592c5" stroke="#9592c5" stroke-width="1.51"/><path d="M939,653L1061,658L925,531Z" fill="#817dba" stroke="#817dba" stroke-width="1.51"/><path d="M1062,793L1061,658L939,653Z" fill="#796eb2" stroke="#796eb2" stroke-width="1.51"/><path d="M804,239L642,227L647,368Z" fill="#aeacd3" stroke="#aeacd3" stroke-width="1.51"/><path d="M647,368L516,526L648,530Z" fill="#a3a0cb" stroke="#a3a0cb" stroke-width="1.51"/><path d="M794,110L642,227L804,239Z" fill="#b2b1d4" stroke="#b2b1d4" stroke-width="1.51"/><path d="M929,228L794,110L804,239Z" fill="#adaad2" stroke="#adaad2" stroke-width="1.51"/><path d="M1069,365L1071,228L929,228Z" fill="#9c97c9" stroke="#9c97c9" stroke-width="1.51"/><path d="M915,93L794,110L929,228Z" fill="#afacd3" stroke="#afacd3" stroke-width="1.51"/><path d="M1066,511L1197,387L1069,365Z" fill="#8b81bc" stroke="#8b81bc" stroke-width="1.51"/><path d="M1069,365L1217,251L1071,228Z" fill="#978dc4" stroke="#978dc4" stroke-width="1.51"/><path d="M1224,507L1197,387L1066,511Z" fill="#8578b8" stroke="#8578b8" stroke-width="1.51"/><path d="M1078,101L915,93L929,228Z" fill="#a9a6d0" stroke="#a9a6d0" stroke-width="1.51"/><path d="M648,530L500,657L663,652Z" fill="#9794c6" stroke="#9794c6" stroke-width="1.51"/><path d="M500,386L516,526L647,368Z" fill="#aaa8d0" stroke="#aaa8d0" stroke-width="1.51"/><path d="M506,249L500,386L647,368Z" fill="#b2b1d5" stroke="#b2b1d5" stroke-width="1.51"/><path d="M791,655L797,797L939,653Z" fill="#837ab9" stroke="#837ab9" stroke-width="1.51"/><path d="M660,785L797,797L791,655Z" fill="#867ab8" stroke="#867ab8" stroke-width="1.51"/><path d="M660,785L791,655L663,652Z" fill="#8c83bd" stroke="#8c83bd" stroke-width="1.51"/><path d="M1196,661L1224,507L1066,511Z" fill="#7d71b4" stroke="#7d71b4" stroke-width="1.51"/><path d="M797,797L926,815L939,653Z" fill="#7d71b4" stroke="#7d71b4" stroke-width="1.51"/><path d="M1061,658L1196,661L1066,511Z" fill="#7c71b4" stroke="#7c71b4" stroke-width="1.51"/><path d="M642,227L506,249L647,368Z" fill="#b4b3d6" stroke="#b4b3d6" stroke-width="1.51"/><path d="M794,110L643,103L642,227Z" fill="#b9b8d8" stroke="#b9b8d8" stroke-width="1.51"/><path d="M662,-45L643,103L794,110Z" fill="#bfbddb" stroke="#bfbddb" stroke-width="1.51"/><path d="M643,103L506,249L642,227Z" fill="#bbbada" stroke="#bbbada" stroke-width="1.51"/><path d="M797,797L778,949L926,815Z" fill="#7b68b0" stroke="#7b68b0" stroke-width="1.51"/><path d="M500,657L660,785L663,652Z" fill="#928ac1" stroke="#928ac1" stroke-width="1.51"/><path d="M1071,228L1078,101L929,228Z" fill="#a39ecc" stroke="#a39ecc" stroke-width="1.51"/><path d="M1207,113L1078,101L1071,228Z" fill="#a398ca" stroke="#a398ca" stroke-width="1.51"/><path d="M1062,793L1196,661L1061,658Z" fill="#7566ae" stroke="#7566ae" stroke-width="1.51"/><path d="M1197,387L1217,251L1069,365Z" fill="#9185bf" stroke="#9185bf" stroke-width="1.51"/><path d="M1349,392L1217,251L1197,387Z" fill="#8c7bba" stroke="#8c7bba" stroke-width="1.51"/><path d="M926,815L1062,793L939,653Z" fill="#786cb1" stroke="#786cb1" stroke-width="1.51"/><path d="M516,526L500,657L648,530Z" fill="#9e9bca" stroke="#9e9bca" stroke-width="1.51"/><path d="M355,529L500,657L516,526Z" fill="#a4a2cd" stroke="#a4a2cd" stroke-width="1.51"/><path d="M915,93L794,-55L794,110Z" fill="#b8b5d7" stroke="#b8b5d7" stroke-width="1.51"/><path d="M1062,-27L923,-31L915,93Z" fill="#b3afd5" stroke="#b3afd5" stroke-width="1.51"/><path d="M1078,101L1062,-27L915,93Z" fill="#ada7d2" stroke="#ada7d2" stroke-width="1.51"/><path d="M1217,251L1207,113L1071,228Z" fill="#9c90c5" stroke="#9c90c5" stroke-width="1.51"/><path d="M1224,507L1349,392L1197,387Z" fill="#8573b5" stroke="#8573b5" stroke-width="1.51"/><path d="M1217,251L1345,236L1207,113Z" fill="#9887c1" stroke="#9887c1" stroke-width="1.51"/><path d="M1354,529L1349,392L1224,507Z" fill="#7f6bb1" stroke="#7f6bb1" stroke-width="1.51"/><path d="M923,-31L794,-55L915,93Z" fill="#b9b5d8" stroke="#b9b5d8" stroke-width="1.51"/><path d="M500,386L355,529L516,526Z" fill="#acaad1" stroke="#acaad1" stroke-width="1.51"/><path d="M506,249L362,369L500,386Z" fill="#b8b8d9" stroke="#b8b8d9" stroke-width="1.51"/><path d="M373,246L362,369L506,249Z" fill="#bebfdd" stroke="#bebfdd" stroke-width="1.51"/><path d="M497,86L506,249L643,103Z" fill="#c2c2de" stroke="#c2c2de" stroke-width="1.51"/><path d="M500,657L518,808L660,785Z" fill="#9287c0" stroke="#9287c0" stroke-width="1.51"/><path d="M645,928L778,949L797,797Z" fill="#7f6ab0" stroke="#7f6ab0" stroke-width="1.51"/><path d="M365,800L518,808L500,657Z" fill="#988cc3" stroke="#988cc3" stroke-width="1.51"/><path d="M662,-45L497,86L643,103Z" fill="#c6c5e0" stroke="#c6c5e0" stroke-width="1.51"/><path d="M1062,793L1214,793L1196,661Z" fill="#705ca9" stroke="#705ca9" stroke-width="1.51"/><path d="M1343,649L1354,529L1224,507Z" fill="#7764ad" stroke="#7764ad" stroke-width="1.51"/><path d="M1065,938L1214,793L1062,793Z" fill="#6c55a5" stroke="#6c55a5" stroke-width="1.51"/><path d="M1343,649L1224,507L1196,661Z" fill="#7565ad" stroke="#7565ad" stroke-width="1.51"/><path d="M362,369L355,529L500,386Z" fill="#b3b1d5" stroke="#b3b1d5" stroke-width="1.51"/><path d="M1207,113L1062,-27L1078,101Z" fill="#a99ecd" stroke="#a99ecd" stroke-width="1.51"/><path d="M923,-31L917,-177L794,-55Z" fill="#bdb9da" stroke="#bdb9da" stroke-width="1.51"/><path d="M645,928L797,797L660,785Z" fill="#8472b5" stroke="#8472b5" stroke-width="1.51"/><path d="M926,815L1065,938L1062,793Z" fill="#705da9" stroke="#705da9" stroke-width="1.51"/><path d="M778,949L945,949L926,815Z" fill="#7460ab" stroke="#7460ab" stroke-width="1.51"/><path d="M382,102L373,246L506,249Z" fill="#c6c6e1" stroke="#c6c6e1" stroke-width="1.51"/><path d="M794,-55L662,-45L794,110Z" fill="#c0bcdb" stroke="#c0bcdb" stroke-width="1.51"/><path d="M1362,99L1345,236L1485,238Z" fill="#947dbc" stroke="#947dbc" stroke-width="1.51"/><path d="M1349,392L1345,236L1217,251Z" fill="#8f7cba" stroke="#8f7cba" stroke-width="1.51"/><path d="M1207,113L1222,-53L1062,-27Z" fill="#aa9ccc" stroke="#aa9ccc" stroke-width="1.51"/><path d="M1214,793L1343,649L1196,661Z" fill="#6f5aa8" stroke="#6f5aa8" stroke-width="1.51"/><path d="M518,808L645,928L660,785Z" fill="#8978b8" stroke="#8978b8" stroke-width="1.51"/><path d="M355,529L366,652L500,657Z" fill="#a3a1ce" stroke="#a3a1ce" stroke-width="1.51"/><path d="M945,949L1065,938L926,815Z" fill="#6f5ba8" stroke="#6f5ba8" stroke-width="1.51"/><path d="M497,86L382,102L506,249Z" fill="#c8c8e2" stroke="#c8c8e2" stroke-width="1.51"/><path d="M241,247L234,374L362,369Z" fill="#c3c3df" stroke="#c3c3df" stroke-width="1.51"/><path d="M368,-48L382,102L497,86Z" fill="#d1d2e7" stroke="#d1d2e7" stroke-width="1.51"/><path d="M1345,236L1362,99L1207,113Z" fill="#9b87c1" stroke="#9b87c1" stroke-width="1.51"/><path d="M1485,238L1345,236L1349,392Z" fill="#8c75b7" stroke="#8c75b7" stroke-width="1.51"/><path d="M518,808L498,937L645,928Z" fill="#8a76b8" stroke="#8a76b8" stroke-width="1.51"/><path d="M366,652L365,800L500,657Z" fill="#9e96c8" stroke="#9e96c8" stroke-width="1.51"/><path d="M241,649L365,800L366,652Z" fill="#a39bcb" stroke="#a39bcb" stroke-width="1.51"/><path d="M638,-182L495,-55L662,-45Z" fill="#cecce4" stroke="#cecce4" stroke-width="1.51"/><path d="M662,-45L495,-55L497,86Z" fill="#cdcbe3" stroke="#cdcbe3" stroke-width="1.51"/><path d="M1341,-39L1222,-53L1207,113Z" fill="#a694c8" stroke="#a694c8" stroke-width="1.51"/><path d="M1062,-27L917,-177L923,-31Z" fill="#b8b3d8" stroke="#b8b3d8" stroke-width="1.51"/><path d="M1490,659L1494,510L1354,529Z" fill="#7159a8" stroke="#7159a8" stroke-width="1.51"/><path d="M1354,529L1494,510L1349,392Z" fill="#7a63ad" stroke="#7a63ad" stroke-width="1.51"/><path d="M1214,793L1361,786L1343,649Z" fill="#6a50a3" stroke="#6a50a3" stroke-width="1.51"/><path d="M1363,931L1361,786L1214,793Z" fill="#64459d" stroke="#64459d" stroke-width="1.51"/><path d="M365,800L498,937L518,808Z" fill="#9281be" stroke="#9281be" stroke-width="1.51"/><path d="M653,1088L790,1068L778,949Z" fill="#775ba8" stroke="#775ba8" stroke-width="1.51"/><path d="M1072,-188L917,-177L1062,-27Z" fill="#b8b1d6" stroke="#b8b1d6" stroke-width="1.51"/><path d="M794,-55L787,-177L662,-45Z" fill="#c5c2de" stroke="#c5c2de" stroke-width="1.51"/><path d="M1065,938L1209,947L1214,793Z" fill="#674ba0" stroke="#674ba0" stroke-width="1.51"/><path d="M1220,1075L1209,947L1065,938Z" fill="#61409b" stroke="#61409b" stroke-width="1.51"/><path d="M917,-177L787,-177L794,-55Z" fill="#c2bedd" stroke="#c2bedd" stroke-width="1.51"/><path d="M241,247L362,369L373,246Z" fill="#c4c4e0" stroke="#c4c4e0" stroke-width="1.51"/><path d="M362,369L234,374L355,529Z" fill="#b8b7d8" stroke="#b8b7d8" stroke-width="1.51"/><path d="M355,529L241,649L366,652Z" fill="#a9a6d0" stroke="#a9a6d0" stroke-width="1.51"/><path d="M653,1088L778,949L645,928Z" fill="#7c62ac" stroke="#7c62ac" stroke-width="1.51"/><path d="M778,949L920,1069L945,949Z" fill="#7057a7" stroke="#7057a7" stroke-width="1.51"/><path d="M945,949L1056,1091L1065,938Z" fill="#684da1" stroke="#684da1" stroke-width="1.51"/><path d="M790,1068L920,1069L778,949Z" fill="#7256a6" stroke="#7256a6" stroke-width="1.51"/><path d="M234,374L222,521L355,529Z" fill="#b7b5d7" stroke="#b7b5d7" stroke-width="1.51"/><path d="M1490,659L1354,529L1343,649Z" fill="#6f59a7" stroke="#6f59a7" stroke-width="1.51"/><path d="M234,374L87,381L222,521Z" fill="#c0bedc" stroke="#c0bedc" stroke-width="1.51"/><path d="M238,114L241,247L373,246Z" fill="#cdcee5" stroke="#cdcee5" stroke-width="1.51"/><path d="M238,114L373,246L382,102Z" fill="#d0cfe6" stroke="#d0cfe6" stroke-width="1.51"/><path d="M1494,510L1503,387L1349,392Z" fill="#7d63ad" stroke="#7d63ad" stroke-width="1.51"/><path d="M222,521L241,649L355,529Z" fill="#b0add4" stroke="#b0add4" stroke-width="1.51"/><path d="M787,-177L638,-182L662,-45Z" fill="#cac7e1" stroke="#cac7e1" stroke-width="1.51"/><path d="M1072,-188L638,-182L787,-177Z" fill="#c3c0de" stroke="#c3c0de" stroke-width="1.51"/><path d="M1503,387L1485,238L1349,392Z" fill="#856cb3" stroke="#856cb3" stroke-width="1.51"/><path d="M1222,-53L1072,-188L1062,-27Z" fill="#b2a5d1" stroke="#b2a5d1" stroke-width="1.51"/><path d="M917,-177L1072,-188L787,-177Z" fill="#bebadb" stroke="#bebadb" stroke-width="1.51"/><path d="M1361,786L1490,659L1343,649Z" fill="#694ea2" stroke="#694ea2" stroke-width="1.51"/><path d="M1640,383L1615,249L1503,387Z" fill="#8063ad" stroke="#8063ad" stroke-width="1.51"/><path d="M1499,797L1490,659L1361,786Z" fill="#64449c" stroke="#64449c" stroke-width="1.51"/><path d="M790,1068L1056,1091L920,1069Z" fill="#694da0" stroke="#694da0" stroke-width="1.51"/><path d="M497,1070L653,1088L645,928Z" fill="#8064ae" stroke="#8064ae" stroke-width="1.51"/><path d="M1222,-53L1220,-172L1072,-188Z" fill="#b1a2d0" stroke="#b1a2d0" stroke-width="1.51"/><path d="M1362,99L1341,-39L1207,113Z" fill="#a28ec4" stroke="#a28ec4" stroke-width="1.51"/><path d="M1481,100L1341,-39L1362,99Z" fill="#9f86c1" stroke="#9f86c1" stroke-width="1.51"/><path d="M653,1088L1056,1091L790,1068Z" fill="#6e51a3" stroke="#6e51a3" stroke-width="1.51"/><path d="M920,1069L1056,1091L945,949Z" fill="#684da1" stroke="#684da1" stroke-width="1.51"/><path d="M495,-55L368,-48L497,86Z" fill="#d3d2e7" stroke="#d3d2e7" stroke-width="1.51"/><path d="M497,-168L368,-48L495,-55Z" fill="#d7d7e9" stroke="#d7d7e9" stroke-width="1.51"/><path d="M368,-48L238,114L382,102Z" fill="#d6d6e9" stroke="#d6d6e9" stroke-width="1.51"/><path d="M75,252L87,381L234,374Z" fill="#cac9e2" stroke="#cac9e2" stroke-width="1.51"/><path d="M638,-182L497,-168L495,-55Z" fill="#d3d2e7" stroke="#d3d2e7" stroke-width="1.51"/><path d="M1220,1075L1363,931L1209,947Z" fill="#5c3796" stroke="#5c3796" stroke-width="1.51"/><path d="M1209,947L1363,931L1214,793Z" fill="#63439c" stroke="#63439c" stroke-width="1.51"/><path d="M1336,-191L1220,-172L1222,-53Z" fill="#ae9acb" stroke="#ae9acb" stroke-width="1.51"/><path d="M1485,238L1481,100L1362,99Z" fill="#967cbc" stroke="#967cbc" stroke-width="1.51"/><path d="M1341,-39L1336,-191L1222,-53Z" fill="#aa95c9" stroke="#aa95c9" stroke-width="1.51"/><path d="M1615,249L1481,100L1485,238Z" fill="#8f73b6" stroke="#8f73b6" stroke-width="1.51"/><path d="M498,937L497,1070L645,928Z" fill="#866cb3" stroke="#866cb3" stroke-width="1.51"/><path d="M365,800L357,953L498,937Z" fill="#927ebc" stroke="#927ebc" stroke-width="1.51"/><path d="M228,936L357,953L365,800Z" fill="#9883bf" stroke="#9883bf" stroke-width="1.51"/><path d="M357,953L497,1070L498,937Z" fill="#8b72b6" stroke="#8b72b6" stroke-width="1.51"/><path d="M1056,1091L1220,1075L1065,938Z" fill="#61419a" stroke="#61419a" stroke-width="1.51"/><path d="M1640,383L1503,387L1494,510Z" fill="#7a5ea9" stroke="#7a5ea9" stroke-width="1.51"/><path d="M1363,931L1499,797L1361,786Z" fill="#603c99" stroke="#603c99" stroke-width="1.51"/><path d="M1490,659L1499,797L1620,794Z" fill="#603f99" stroke="#603f99" stroke-width="1.51"/><path d="M84,646L215,808L241,649Z" fill="#aba2cf" stroke="#aba2cf" stroke-width="1.51"/><path d="M241,649L215,808L365,800Z" fill="#a397c9" stroke="#a397c9" stroke-width="1.51"/><path d="M75,252L234,374L241,247Z" fill="#cbcce3" stroke="#cbcce3" stroke-width="1.51"/><path d="M222,521L84,646L241,649Z" fill="#b1aed5" stroke="#b1aed5" stroke-width="1.51"/><path d="M1640,383L1494,510L1644,529Z" fill="#7457a6" stroke="#7457a6" stroke-width="1.51"/><path d="M1503,387L1615,249L1485,238Z" fill="#866bb1" stroke="#866bb1" stroke-width="1.51"/><path d="M87,381L75,512L222,521Z" fill="#bebbda" stroke="#bebbda" stroke-width="1.51"/><path d="M1644,529L1494,510L1490,659Z" fill="#6d53a4" stroke="#6d53a4" stroke-width="1.51"/><path d="M238,114L75,252L241,247Z" fill="#d3d3e7" stroke="#d3d3e7" stroke-width="1.51"/><path d="M368,-48L221,-49L238,114Z" fill="#dcdcec" stroke="#dcdcec" stroke-width="1.51"/><path d="M497,-168L380,-189L368,-48Z" fill="#dbdbec" stroke="#dbdbec" stroke-width="1.51"/><path d="M638,-182L380,-189L497,-168Z" fill="#d7d7ea" stroke="#d7d7ea" stroke-width="1.51"/><path d="M1072,-188L380,-189L638,-182Z" fill="#ccc9e2" stroke="#ccc9e2" stroke-width="1.51"/><path d="M1072,-188L1336,-191L380,-189Z" fill="#bebadb" stroke="#bebadb" stroke-width="1.51"/><path d="M1220,-172L1336,-191L1072,-188Z" fill="#b1a0ce" stroke="#b1a0ce" stroke-width="1.51"/><path d="M1482,-187L1336,-191L1341,-39Z" fill="#a98fc7" stroke="#a98fc7" stroke-width="1.51"/><path d="M1502,-51L1341,-39L1481,100Z" fill="#a084c0" stroke="#a084c0" stroke-width="1.51"/><path d="M1642,664L1644,529L1490,659Z" fill="#674ca0" stroke="#674ca0" stroke-width="1.51"/><path d="M75,512L84,646L222,521Z" fill="#b7b4d7" stroke="#b7b4d7" stroke-width="1.51"/><path d="M232,1087L382,1083L357,953Z" fill="#9074b6" stroke="#9074b6" stroke-width="1.51"/><path d="M357,953L382,1083L497,1070Z" fill="#8b6fb4" stroke="#8b6fb4" stroke-width="1.51"/><path d="M497,1070L382,1083L653,1088Z" fill="#8366ae" stroke="#8366ae" stroke-width="1.51"/><path d="M228,936L365,800L215,808Z" fill="#9e8bc4" stroke="#9e8bc4" stroke-width="1.51"/><path d="M221,-169L221,-49L368,-48Z" fill="#e2e1ef" stroke="#e2e1ef" stroke-width="1.51"/><path d="M100,948L228,936L215,808Z" fill="#9f89c3" stroke="#9f89c3" stroke-width="1.51"/><path d="M87,381L-37,370L75,512Z" fill="#c6c4df" stroke="#c6c4df" stroke-width="1.51"/><path d="M81,95L75,252L238,114Z" fill="#d9d9ea" stroke="#d9d9ea" stroke-width="1.51"/><path d="M1623,-46L1502,-51L1481,100Z" fill="#9c7fbd" stroke="#9c7fbd" stroke-width="1.51"/><path d="M1620,794L1642,664L1490,659Z" fill="#61429a" stroke="#61429a" stroke-width="1.51"/><path d="M1502,950L1499,797L1363,931Z" fill="#5a3294" stroke="#5a3294" stroke-width="1.51"/><path d="M1478,1093L1502,950L1363,931Z" fill="#54268e" stroke="#54268e" stroke-width="1.51"/><path d="M1220,1075L1359,1093L1363,931Z" fill="#572f92" stroke="#572f92" stroke-width="1.51"/><path d="M1056,1091L1359,1093L1220,1075Z" fill="#593493" stroke="#593493" stroke-width="1.51"/><path d="M1502,950L1620,794L1499,797Z" fill="#593293" stroke="#593293" stroke-width="1.51"/><path d="M221,-49L81,95L238,114Z" fill="#dfdeed" stroke="#dfdeed" stroke-width="1.51"/><path d="M228,936L232,1087L357,953Z" fill="#967bbb" stroke="#967bbb" stroke-width="1.51"/><path d="M84,646L88,806L215,808Z" fill="#aa9dcc" stroke="#aa9dcc" stroke-width="1.51"/><path d="M-38,660L88,806L84,646Z" fill="#b0a6d2" stroke="#b0a6d2" stroke-width="1.51"/><path d="M1615,249L1641,97L1481,100Z" fill="#9174b6" stroke="#9174b6" stroke-width="1.51"/><path d="M1764,229L1641,97L1615,249Z" fill="#896bb1" stroke="#896bb1" stroke-width="1.51"/><path d="M1764,229L1615,249L1640,383Z" fill="#8164ad" stroke="#8164ad" stroke-width="1.51"/><path d="M221,-49L100,-43L81,95Z" fill="#e4e3f0" stroke="#e4e3f0" stroke-width="1.51"/><path d="M380,-189L221,-169L368,-48Z" fill="#e1e0ee" stroke="#e1e0ee" stroke-width="1.51"/><path d="M1641,-190L1482,-187L1502,-51Z" fill="#a384c0" stroke="#a384c0" stroke-width="1.51"/><path d="M1502,-51L1482,-187L1341,-39Z" fill="#a489c3" stroke="#a489c3" stroke-width="1.51"/><path d="M-42,231L-37,370L75,252Z" fill="#d4d3e8" stroke="#d4d3e8" stroke-width="1.51"/><path d="M75,252L-37,370L87,381Z" fill="#cecde4" stroke="#cecde4" stroke-width="1.51"/><path d="M75,512L-50,522L84,646Z" fill="#bbb7d9" stroke="#bbb7d9" stroke-width="1.51"/><path d="M221,-169L100,-43L221,-49Z" fill="#e7e6f1" stroke="#e7e6f1" stroke-width="1.51"/><path d="M81,95L-42,231L75,252Z" fill="#dadaeb" stroke="#dadaeb" stroke-width="1.51"/><path d="M100,948L232,1087L228,936Z" fill="#9a7ebd" stroke="#9a7ebd" stroke-width="1.51"/><path d="M382,1083L232,1087L653,1088Z" fill="#886bb1" stroke="#886bb1" stroke-width="1.51"/><path d="M653,1088L99,1094L1056,1091Z" fill="#7c5faa" stroke="#7c5faa" stroke-width="1.51"/><path d="M1056,1091L99,1094L1359,1093Z" fill="#6d51a2" stroke="#6d51a2" stroke-width="1.51"/><path d="M1359,1093L1478,1093L1363,931Z" fill="#53268e" stroke="#53268e" stroke-width="1.51"/><path d="M1502,950L1644,955L1620,794Z" fill="#54298e" stroke="#54298e" stroke-width="1.51"/><path d="M1641,97L1623,-46L1481,100Z" fill="#9779ba" stroke="#9779ba" stroke-width="1.51"/><path d="M1644,529L1764,390L1640,383Z" fill="#7455a4" stroke="#7455a4" stroke-width="1.51"/><path d="M1641,97L1772,-42L1623,-46Z" fill="#9776b8" stroke="#9776b8" stroke-width="1.51"/><path d="M1775,520L1764,390L1644,529Z" fill="#6f50a1" stroke="#6f50a1" stroke-width="1.51"/><path d="M1775,520L1644,529L1763,653Z" fill="#67499e" stroke="#67499e" stroke-width="1.51"/><path d="M-37,370L-50,522L75,512Z" fill="#c4c1de" stroke="#c4c1de" stroke-width="1.51"/><path d="M88,806L100,948L215,808Z" fill="#a490c6" stroke="#a490c6" stroke-width="1.51"/><path d="M-57,928L100,948L88,806Z" fill="#a68ec5" stroke="#a68ec5" stroke-width="1.51"/><path d="M-50,522L-38,660L84,646Z" fill="#b9b4d8" stroke="#b9b4d8" stroke-width="1.51"/><path d="M-200,394L-195,525L-50,522Z" fill="#c7c4df" stroke="#c7c4df" stroke-width="1.51"/><path d="M-58,102L-42,231L81,95Z" fill="#e0dfee" stroke="#e0dfee" stroke-width="1.51"/><path d="M1763,653L1642,664L1776,810Z" fill="#5c3b96" stroke="#5c3b96" stroke-width="1.51"/><path d="M1763,653L1644,529L1642,664Z" fill="#64479c" stroke="#64479c" stroke-width="1.51"/><path d="M1775,520L1764,229L1764,390Z" fill="#7859a6" stroke="#7859a6" stroke-width="1.51"/><path d="M1764,390L1764,229L1640,383Z" fill="#7c5da9" stroke="#7c5da9" stroke-width="1.51"/><path d="M1776,810L1642,664L1620,794Z" fill="#5a3694" stroke="#5a3694" stroke-width="1.51"/><path d="M1621,1088L1644,955L1502,950Z" fill="#4d1c89" stroke="#4d1c89" stroke-width="1.51"/><path d="M-200,394L-50,522L-37,370Z" fill="#cac7e1" stroke="#cac7e1" stroke-width="1.51"/><path d="M-41,-52L-58,102L81,95Z" fill="#e7e6f1" stroke="#e7e6f1" stroke-width="1.51"/><path d="M-41,-52L81,95L100,-43Z" fill="#e8e6f2" stroke="#e8e6f2" stroke-width="1.51"/><path d="M-198,671L-46,808L-38,660Z" fill="#b4aad3" stroke="#b4aad3" stroke-width="1.51"/><path d="M-38,660L-46,808L88,806Z" fill="#afa1cf" stroke="#afa1cf" stroke-width="1.51"/><path d="M100,948L99,1094L232,1087Z" fill="#997cbb" stroke="#997cbb" stroke-width="1.51"/><path d="M-57,928L-46,808L-202,804Z" fill="#ad99cb" stroke="#ad99cb" stroke-width="1.51"/><path d="M221,-169L88,-167L100,-43Z" fill="#eae9f3" stroke="#eae9f3" stroke-width="1.51"/><path d="M-47,-182L88,-167L221,-169Z" fill="#eeedf5" stroke="#eeedf5" stroke-width="1.51"/><path d="M1764,229L1772,96L1641,97Z" fill="#8d6db2" stroke="#8d6db2" stroke-width="1.51"/><path d="M1623,-46L1641,-190L1502,-51Z" fill="#9f80bd" stroke="#9f80bd" stroke-width="1.51"/><path d="M1775,520L1772,96L1764,229Z" fill="#8163ac" stroke="#8163ac" stroke-width="1.51"/><path d="M1644,955L1776,810L1620,794Z" fill="#53298e" stroke="#53298e" stroke-width="1.51"/><path d="M1763,653L1776,810L1775,520Z" fill="#604199" stroke="#604199" stroke-width="1.51"/><path d="M-56,1076L99,1094L100,948Z" fill="#9e7fbd" stroke="#9e7fbd" stroke-width="1.51"/><path d="M232,1087L99,1094L653,1088Z" fill="#8e70b4" stroke="#8e70b4" stroke-width="1.51"/><path d="M1359,1093L99,1094L1478,1093Z" fill="#65499e" stroke="#65499e" stroke-width="1.51"/><path d="M1644,955L1778,929L1776,810Z" fill="#4f228a" stroke="#4f228a" stroke-width="1.51"/><path d="M1478,1093L1621,1088L1502,950Z" fill="#4d1c89" stroke="#4d1c89" stroke-width="1.51"/><path d="M1767,-181L1641,-190L1623,-46Z" fill="#9e7cbb" stroke="#9e7cbb" stroke-width="1.51"/><path d="M1482,-187L1641,-190L1336,-191Z" fill="#a689c4" stroke="#a689c4" stroke-width="1.51"/><path d="M88,-167L-41,-52L100,-43Z" fill="#ecebf4" stroke="#ecebf4" stroke-width="1.51"/><path d="M1772,96L1772,-42L1641,97Z" fill="#9372b5" stroke="#9372b5" stroke-width="1.51"/><path d="M1775,520L1772,-42L1772,96Z" fill="#8869b0" stroke="#8869b0" stroke-width="1.51"/><path d="M-195,525L-38,660L-50,522Z" fill="#bebadb" stroke="#bebadb" stroke-width="1.51"/><path d="M-46,808L-57,928L88,806Z" fill="#aa96ca" stroke="#aa96ca" stroke-width="1.51"/><path d="M1775,1088L1778,929L1644,955Z" fill="#491585" stroke="#491585" stroke-width="1.51"/><path d="M1776,810L1778,929L1775,520Z" fill="#593593" stroke="#593593" stroke-width="1.51"/><path d="M1775,520L1778,929L1772,-42Z" fill="#7051a1" stroke="#7051a1" stroke-width="1.51"/><path d="M-200,394L-37,370L-191,226Z" fill="#d4d3e7" stroke="#d4d3e7" stroke-width="1.51"/><path d="M-37,370L-42,231L-191,226Z" fill="#d7d7e9" stroke="#d7d7e9" stroke-width="1.51"/><path d="M-191,226L-42,231L-58,102Z" fill="#dfdfee" stroke="#dfdfee" stroke-width="1.51"/><path d="M-181,97L-191,226L-58,102Z" fill="#e4e3f0" stroke="#e4e3f0" stroke-width="1.51"/><path d="M-195,525L-198,671L-38,660Z" fill="#bcb7da" stroke="#bcb7da" stroke-width="1.51"/><path d="M-200,394L-198,671L-195,525Z" fill="#c4c1de" stroke="#c4c1de" stroke-width="1.51"/><path d="M-182,-36L-181,97L-58,102Z" fill="#eae9f3" stroke="#eae9f3" stroke-width="1.51"/><path d="M-41,-52L-182,-36L-58,102Z" fill="#eceaf4" stroke="#eceaf4" stroke-width="1.51"/><path d="M88,-167L-47,-182L-41,-52Z" fill="#f0eff6" stroke="#f0eff6" stroke-width="1.51"/><path d="M380,-189L-47,-182L221,-169Z" fill="#eae9f3" stroke="#eae9f3" stroke-width="1.51"/><path d="M1772,-42L1767,-181L1623,-46Z" fill="#9b79b9" stroke="#9b79b9" stroke-width="1.51"/><path d="M-57,928L-56,1076L100,948Z" fill="#a386c2" stroke="#a386c2" stroke-width="1.51"/><path d="M-187,947L-56,1076L-57,928Z" fill="#a589c3" stroke="#a589c3" stroke-width="1.51"/><path d="M-198,671L-202,804L-46,808Z" fill="#b3a5d0" stroke="#b3a5d0" stroke-width="1.51"/><path d="M-200,394L-202,804L-198,671Z" fill="#bdb9da" stroke="#bdb9da" stroke-width="1.51"/><path d="M1621,1088L1775,1088L1644,955Z" fill="#471083" stroke="#471083" stroke-width="1.51"/><path d="M1478,1093L1775,1088L1621,1088Z" fill="#471083" stroke="#471083" stroke-width="1.51"/><path d="M-178,-170L-182,-36L-41,-52Z" fill="#f2f1f7" stroke="#f2f1f7" stroke-width="1.51"/><path d="M-181,97L-182,-36L-191,226Z" fill="#e9e8f3" stroke="#e9e8f3" stroke-width="1.51"/><path d="M-191,226L-182,-36L-200,394Z" fill="#e1e0ef" stroke="#e1e0ef" stroke-width="1.51"/><path d="M-202,804L-187,947L-57,928Z" fill="#ac94c9" stroke="#ac94c9" stroke-width="1.51"/><path d="M-47,-182L-178,-170L-41,-52Z" fill="#f3f1f7" stroke="#f3f1f7" stroke-width="1.51"/><path d="M-182,-36L-178,-170L-200,394Z" fill="#ebeaf4" stroke="#ebeaf4" stroke-width="1.51"/><path d="M-187,947L-188,1084L-56,1076Z" fill="#a485c1" stroke="#a485c1" stroke-width="1.51"/><path d="M-56,1076L-188,1084L99,1094Z" fill="#9f7fbd" stroke="#9f7fbd" stroke-width="1.51"/><path d="M-202,804L-188,1084L-187,947Z" fill="#aa8fc6" stroke="#aa8fc6" stroke-width="1.51"/></svg>